<?xml version="1.0" encoding="UTF-8"?>
<svg version="1.1" xmlns="http://www.w3.org/2000/svg" width="424" height="424">
<path d="M0 0 C0.99902344 0.63292969 1.99804688 1.26585937 3.02734375 1.91796875 C3.94644531 2.52253906 4.86554688 3.12710938 5.8125 3.75 C6.62332031 4.28109375 7.43414062 4.8121875 8.26953125 5.359375 C8.84058594 5.90078125 9.41164063 6.4421875 10 7 C10 11 10 11 8.55053711 12.88769531 C7.8828833 13.52803711 7.21522949 14.16837891 6.52734375 14.828125 C5.42422852 15.90513672 5.42422852 15.90513672 4.29882812 17.00390625 C3.1299707 18.11572266 3.1299707 18.11572266 1.9375 19.25 C-3.03126465 24.04419794 -7.85609436 28.84565283 -12.35327148 34.08837891 C-14.99178313 37.15132127 -17.74191087 40.10740451 -20.5 43.0625 C-21.09167969 43.69736328 -21.68335938 44.33222656 -22.29296875 44.98632812 C-27.3571347 50.38492013 -32.56334926 55.63184639 -37.84960938 60.81274414 C-41.79870791 64.70482186 -45.44118016 68.74677629 -49 73 C-52.42885007 72.24022198 -55.29778558 70.90694797 -58.43212891 69.32055664 C-81.9446168 57.50503299 -110.47013073 53.77199214 -136 61 C-150.50859608 65.81121833 -164.61336465 72.69874584 -176 83 C-177.10021484 83.97839844 -177.10021484 83.97839844 -178.22265625 84.9765625 C-198.01948539 103.62119524 -209.01174966 129.18410803 -210.22265625 156.25 C-211.03003749 184.8087645 -201.50771696 210.45398263 -182.4375 231.87890625 C-163.07928275 252.10936876 -137.37629519 262.52359642 -109.6875 263.25 C-90.92638616 262.77183068 -73.68528309 259.70492424 -57.17504883 250.50341797 C-52.57716065 247.99482831 -52.57716065 247.99482831 -49.8203125 248.01953125 C-47.33503021 249.35817042 -45.64840699 251.03193379 -43.6875 253.0625 C-42.8934375 253.88234375 -42.099375 254.7021875 -41.28125 255.546875 C-38.78560574 258.23054725 -36.39486141 260.98642059 -34.01171875 263.76953125 C-31.44193194 266.61875119 -28.72917645 269.30434122 -26 272 C-22.05764603 275.89393697 -18.30016738 279.85162812 -14.70703125 284.07421875 C-12.72400205 286.31136611 -10.62806614 288.40054652 -8.5 290.5 C-5.07417396 293.88518064 -1.83068525 297.35454143 1.29296875 301.01953125 C2.49695011 302.41637004 3.7320375 303.78668862 4.98828125 305.13671875 C5.95314453 306.18279297 5.95314453 306.18279297 6.9375 307.25 C7.52402344 307.87390625 8.11054688 308.4978125 8.71484375 309.140625 C10 311 10 311 10 315 C8.49389648 316.42871094 8.49389648 316.42871094 6.37109375 317.734375 C5.5917749 318.22180176 4.81245605 318.70922852 4.00952148 319.21142578 C3.16075439 319.71915527 2.3119873 320.22688477 1.4375 320.75 C0.12857788 321.54833252 0.12857788 321.54833252 -1.20678711 322.36279297 C-3.79377278 323.92743523 -6.39439377 325.46662141 -9 327 C-9.96679688 327.58152832 -9.96679688 327.58152832 -10.953125 328.17480469 C-54.5537302 354.22223831 -108.74185525 358.54110459 -157.3125 346.375 C-182.37052668 339.75929574 -205.75493018 328.17865322 -226 312 C-226.82806152 311.34330322 -226.82806152 311.34330322 -227.67285156 310.67333984 C-267.91499339 278.48201181 -292.8443433 233.03356389 -299.5625 182.02734375 C-300.28846786 175.10566638 -300.24424034 168.13999107 -300.25 161.1875 C-300.25067474 160.45423492 -300.25134949 159.72096985 -300.25204468 158.96548462 C-300.23471523 147.07958601 -299.53762808 135.63595314 -297 124 C-296.82839355 123.18853516 -296.65678711 122.37707031 -296.47998047 121.54101562 C-292.46798655 102.99764428 -286.00436648 85.68211428 -277 69 C-276.45859375 67.97777344 -275.9171875 66.95554687 -275.359375 65.90234375 C-268.16610433 52.93001339 -258.77281351 41.16143801 -248.47460938 30.52587891 C-247.45365211 29.46942478 -246.43976855 28.40610583 -245.43164062 27.33740234 C-232.37106755 13.50052877 -217.70482923 2.12047789 -201 -7 C-200.38366699 -7.33837891 -199.76733398 -7.67675781 -199.13232422 -8.02539062 C-136.68185892 -41.84531644 -59.44138057 -38.67177171 0 0 Z " fill="#CC1F21" transform="translate(351,54)"/>
<path d="M0 0 C0.99902344 0.63292969 1.99804688 1.26585937 3.02734375 1.91796875 C3.94644531 2.52253906 4.86554688 3.12710938 5.8125 3.75 C6.62332031 4.28109375 7.43414062 4.8121875 8.26953125 5.359375 C8.84058594 5.90078125 9.41164063 6.4421875 10 7 C10 11 10 11 8.55053711 12.88769531 C7.8828833 13.52803711 7.21522949 14.16837891 6.52734375 14.828125 C5.42422852 15.90513672 5.42422852 15.90513672 4.29882812 17.00390625 C3.1299707 18.11572266 3.1299707 18.11572266 1.9375 19.25 C-3.03126465 24.04419794 -7.85609436 28.84565283 -12.35327148 34.08837891 C-14.99178313 37.15132127 -17.74191087 40.10740451 -20.5 43.0625 C-21.09167969 43.69736328 -21.68335938 44.33222656 -22.29296875 44.98632812 C-27.3571347 50.38492013 -32.56334926 55.63184639 -37.84960938 60.81274414 C-41.79870791 64.70482186 -45.44118016 68.74677629 -49 73 C-52.42885007 72.24022198 -55.29778558 70.90694797 -58.43212891 69.32055664 C-83.64092544 56.65260193 -112.62816733 54.2628365 -139.7265625 62.07421875 C-143 63 -143 63 -146.3125 63.4375 C-153.63643948 64.55471111 -160.22310678 67.07063325 -167 70 C-169.37375153 70.9198948 -171.74879223 71.83646872 -174.125 72.75 C-180.54507387 75.25669383 -186.5000894 78.27680357 -192.48828125 81.6796875 C-195 83 -195 83 -197 83 C-197 83.66 -197 84.32 -197 85 C-198.28913487 85.67154933 -199.58140204 86.33708859 -200.875 87 C-201.59429687 87.37125 -202.31359375 87.7425 -203.0546875 88.125 C-205 89 -205 89 -207 89 C-207 89.66 -207 90.32 -207 91 C-208.98 91.66 -210.96 92.32 -213 93 C-213 93.66 -213 94.32 -213 95 C-214.8359375 96.19140625 -214.8359375 96.19140625 -217.375 97.5625 C-223.30948843 100.99913878 -228.02746907 105.31901812 -233 110 C-234.4923561 111.36258601 -235.99171511 112.71756727 -237.5 114.0625 C-238.1290625 114.63097656 -238.758125 115.19945312 -239.40625 115.78515625 C-241 117 -241 117 -243 117 C-243.38478516 117.87785156 -243.38478516 117.87785156 -243.77734375 118.7734375 C-245.10562162 121.19234608 -246.56524801 122.73198872 -248.5625 124.625 C-251.14015389 127.04521959 -251.14015389 127.04521959 -253 130 C-254.66666667 131 -256.33333333 132 -258 133 C-258.33 133.66 -258.66 134.32 -259 135 C-259.66 135 -260.32 135 -261 135 C-261.268125 135.556875 -261.53625 136.11375 -261.8125 136.6875 C-263.10899496 139.21225334 -264.42476323 141.63714484 -266 144 C-266.66 144 -267.32 144 -268 144 C-268.103125 144.53625 -268.20625 145.0725 -268.3125 145.625 C-269.86865275 151.0008004 -272.92611291 155.38916936 -276 160 C-277.03432904 161.98246398 -278.03238392 163.98413316 -279 166 C-279.33128906 166.64195312 -279.66257812 167.28390625 -280.00390625 167.9453125 C-282.04052383 171.89830456 -283.65194099 175.74842928 -285 180 C-285.33 180.33 -285.66 180.66 -286 181 C-286.53487482 183.50806849 -286.96405456 186.02807921 -287.40234375 188.5546875 C-288 191 -288 191 -290 194 C-290.39013716 195.9896995 -290.73202649 197.99019869 -291 200 C-291.99 199.67 -292.98 199.34 -294 199 C-295.74808744 193.07592591 -296.34062106 187.2385153 -296.75390625 181.08984375 C-296.9327651 178.84417152 -297.1999303 176.60499764 -297.51953125 174.375 C-298.21830853 168.94931384 -298.14559847 163.52452669 -298.125 158.0625 C-298.12886719 157.00998047 -298.13273437 155.95746094 -298.13671875 154.87304688 C-298.13478516 153.37547852 -298.13478516 153.37547852 -298.1328125 151.84765625 C-298.13168457 150.94023682 -298.13055664 150.03281738 -298.12939453 149.09790039 C-298 147 -298 147 -297 146 C-296.83714166 143.94014359 -296.72121511 141.8765431 -296.625 139.8125 C-295.97386159 129.84194303 -294.42638493 120.03720257 -290 111 C-289.43092114 109.69033907 -288.86837847 108.37781807 -288.3125 107.0625 C-287.879375 106.051875 -287.44625 105.04125 -287 104 C-287.66 103.67 -288.32 103.34 -289 103 C-288.40975852 101.34912153 -287.80233994 99.70437593 -287.1875 98.0625 C-286.85105469 97.14597656 -286.51460937 96.22945313 -286.16796875 95.28515625 C-285 93 -285 93 -282 92 C-282.33 91.01 -282.66 90.02 -283 89 C-281.6314591 85.35055759 -280.16321167 82.24481751 -278 79 C-278.19980469 77.92621094 -278.39960938 76.85242188 -278.60546875 75.74609375 C-279.09089415 71.13695552 -277.75693075 68.7764447 -275.3125 65.0625 C-274.90821777 64.42207764 -274.50393555 63.78165527 -274.08740234 63.12182617 C-266.58072641 51.45122457 -258.12951473 40.49706565 -248.47460938 30.52587891 C-247.45365211 29.46942478 -246.43976855 28.40610583 -245.43164062 27.33740234 C-232.37106755 13.50052877 -217.70482923 2.12047789 -201 -7 C-200.38366699 -7.33837891 -199.76733398 -7.67675781 -199.13232422 -8.02539062 C-136.68185892 -41.84531644 -59.44138057 -38.67177171 0 0 Z " fill="#EB3E3C" transform="translate(351,54)"/>
<path d="M0 0 C0.99 0.495 0.99 0.495 2 1 C2.63945087 3.3547551 3.18047249 5.67899945 3.6875 8.0625 C9.53142432 33.06447954 24.79611213 55.54960795 46.375 69.6875 C72.17120217 85.30953572 100.90493476 89.92457297 130.44140625 83.03515625 C138.76537382 80.86092187 146.30985123 77.69174372 153.82495117 73.50341797 C158.42283935 70.99482831 158.42283935 70.99482831 161.1796875 71.01953125 C163.66496979 72.35817042 165.35159301 74.03193379 167.3125 76.0625 C168.1065625 76.88234375 168.900625 77.7021875 169.71875 78.546875 C172.21439426 81.23054725 174.60513859 83.98642059 176.98828125 86.76953125 C179.55806806 89.61875119 182.27082355 92.30434122 185 95 C188.94235397 98.89393697 192.69983262 102.85162812 196.29296875 107.07421875 C198.27599795 109.31136611 200.37193386 111.40054652 202.5 113.5 C205.92582604 116.88518064 209.16931475 120.35454143 212.29296875 124.01953125 C213.49695011 125.41637004 214.7320375 126.78668862 215.98828125 128.13671875 C216.95314453 129.18279297 216.95314453 129.18279297 217.9375 130.25 C218.52402344 130.87390625 219.11054688 131.4978125 219.71484375 132.140625 C221 134 221 134 221 138 C219.49389648 139.42871094 219.49389648 139.42871094 217.37109375 140.734375 C216.5917749 141.22180176 215.81245605 141.70922852 215.00952148 142.21142578 C214.16075439 142.71915527 213.3119873 143.22688477 212.4375 143.75 C211.12857788 144.54833252 211.12857788 144.54833252 209.79321289 145.36279297 C207.20622722 146.92743523 204.60560623 148.46662141 202 150 C201.35546875 150.38768555 200.7109375 150.77537109 200.046875 151.17480469 C173.66609931 166.93494151 143.24502746 174.17040041 112.8125 175.75 C111.97630127 175.79471436 111.14010254 175.83942871 110.27856445 175.88549805 C100.98666273 176.26103145 93.21554617 175.86889965 85.0625 171.125 C84.41732422 170.77308594 83.77214844 170.42117188 83.10742188 170.05859375 C80.67052653 168.69999303 78.41314171 167.41417199 76.43359375 165.4296875 C74.93643497 163.78296548 74.93643497 163.78296548 72.2109375 162.6328125 C68.60207453 160.7976486 65.66893983 158.50346411 62.625 155.875 C62.05193115 155.38128906 61.4788623 154.88757813 60.88842773 154.37890625 C45.49812547 140.91701169 31.82786479 122.04889695 23.375 103.4375 C22.63363883 101.8316495 21.89145882 100.22617677 21.1484375 98.62109375 C20.79040039 97.84032471 20.43236328 97.05955566 20.06347656 96.25512695 C19.0760981 94.16136781 18.0221376 92.11902666 16.9453125 90.0703125 C14.57742521 85.37133537 13.04548731 80.45595807 11.5 75.4375 C11.19739258 74.46514404 10.89478516 73.49278809 10.58300781 72.4909668 C9.71043913 69.66400325 8.85175869 66.8332951 8 64 C7.78279297 63.28295898 7.56558594 62.56591797 7.34179688 61.82714844 C4.21865853 51.37257517 2.45241178 40.79080586 1 30 C0.8659375 29.01515625 0.731875 28.0303125 0.59375 27.015625 C-0.40712434 18.06336007 -0.08388064 8.99386889 0 0 Z " fill="#9C1416" transform="translate(140,231)"/>
<path d="M0 0 C-1.02738281 0.49628906 -2.05476562 0.99257812 -3.11328125 1.50390625 C-29.68531193 14.46830418 -50.1488576 32.99277007 -61 61 C-63.0725377 67.32021396 -64.81193297 73.53122362 -65.6875 80.125 C-66.25545249 82.9753784 -66.63182277 83.74262658 -69.05078125 85.43359375 C-72.01857477 86.8015241 -74.70261274 88 -78 88 C-78.495 89.485 -78.495 89.485 -79 91 C-80.71484375 91.921875 -80.71484375 91.921875 -82.9375 92.75 C-88.53999994 95.06950635 -93.1225855 98.44669459 -98 102 C-99.5159375 102.99 -99.5159375 102.99 -101.0625 104 C-108.56102929 109.10538165 -115.19507962 114.8641471 -121.5625 121.3125 C-122.30411377 122.05725586 -123.04572754 122.80201172 -123.80981445 123.56933594 C-128.35685468 128.18508075 -132.5074689 132.87921747 -136.42578125 138.0390625 C-138.68152329 140.84894465 -141.0711293 142.9079495 -144 145 C-144.66 145 -145.32 145 -146 145 C-146.495 145.99 -146.495 145.99 -147 147 C-147.28875 146.05125 -147.5775 145.1025 -147.875 144.125 C-148.76825109 140.94788422 -148.76825109 140.94788422 -151 139 C-150.67 138.01 -150.34 137.02 -150 136 C-149.34 136.33 -148.68 136.66 -148 137 C-148 134.69 -148 132.38 -148 130 C-147.34 130 -146.68 130 -146 130 C-145.87882812 129.15695313 -145.75765625 128.31390625 -145.6328125 127.4453125 C-145.38144531 125.80175781 -145.38144531 125.80175781 -145.125 124.125 C-144.96257812 123.03445312 -144.80015625 121.94390625 -144.6328125 120.8203125 C-144 118 -144 118 -142 116 C-141.608125 114.7625 -141.21625 113.525 -140.8125 112.25 C-139.41583145 107.85228468 -137.54846031 103.75076464 -135.5 99.625 C-135.05491089 98.71476074 -135.05491089 98.71476074 -134.60083008 97.78613281 C-133.03806255 94.69087557 -131.46322666 92.40181657 -129 90 C-127.86623698 87.77081809 -127.86623698 87.77081809 -126.9375 85.375 C-125.21884498 81.10942249 -125.21884498 81.10942249 -123 80 C-121.96210419 78.35666496 -120.96432076 76.68756133 -120 75 C-119.34 74.01 -118.68 73.02 -118 72 C-117.34 72 -116.68 72 -116 72 C-115.7525 71.360625 -115.505 70.72125 -115.25 70.0625 C-113.67012061 67.455699 -112.83219689 67.70804922 -110 67 C-109.32761707 65.66954015 -108.66188344 64.33571424 -108 63 C-106.44921875 61.25390625 -106.44921875 61.25390625 -104.6875 59.5625 C-104.06875 58.964375 -103.45 58.36625 -102.8125 57.75 C-102.214375 57.1725 -101.61625 56.595 -101 56 C-100.06119817 55.02208143 -99.12351459 54.04308671 -98.1875 53.0625 C-96 51 -96 51 -94 51 C-93.77441406 50.43023437 -93.54882812 49.86046875 -93.31640625 49.2734375 C-89.1337057 42.04990123 -79.22592228 36.04969271 -72 32 C-71.34 32 -70.68 32 -70 32 C-70 31.34 -70 30.68 -70 30 C-67 28 -67 28 -64 28 C-64 27.34 -64 26.68 -64 26 C-62.71086513 25.32845067 -61.41859796 24.66291141 -60.125 24 C-59.40570313 23.62875 -58.68640625 23.2575 -57.9453125 22.875 C-56 22 -56 22 -54 22 C-54 21.34 -54 20.68 -54 20 C-39.84113299 12.08710127 -25.32944105 6.29527626 -10 1 C-8.95972656 0.60296875 -7.91945312 0.2059375 -6.84765625 -0.203125 C-3.98457915 -1.0043153 -2.72698236 -1.04883937 0 0 Z " fill="#840A0A" transform="translate(208,117)"/>
<path d="M0 0 C0.70353607 -0.00067474 1.40707214 -0.00134949 2.13192749 -0.00204468 C39.63426141 0.05475693 75.32697771 10.80659958 106.75 31.25 C107.74902344 31.88292969 108.74804688 32.51585937 109.77734375 33.16796875 C110.69644531 33.77253906 111.61554688 34.37710938 112.5625 35 C113.37332031 35.53109375 114.18414062 36.0621875 115.01953125 36.609375 C115.59058594 37.15078125 116.16164063 37.6921875 116.75 38.25 C116.75 42.25 116.75 42.25 115.30053711 44.13769531 C114.6328833 44.77803711 113.96522949 45.41837891 113.27734375 46.078125 C112.17422852 47.15513672 112.17422852 47.15513672 111.04882812 48.25390625 C109.8799707 49.36572266 109.8799707 49.36572266 108.6875 50.5 C103.71873535 55.29419794 98.89390564 60.09565283 94.39672852 65.33837891 C91.75821687 68.40132127 89.00808913 71.35740451 86.25 74.3125 C85.65832031 74.94736328 85.06664062 75.58222656 84.45703125 76.23632812 C79.3928653 81.63492013 74.18665074 86.88184639 68.90039062 92.06274414 C64.95129209 95.95482186 61.30881984 99.99677629 57.75 104.25 C54.32114993 103.49022198 51.45221442 102.15694797 48.31787109 100.57055664 C32.71536634 92.72996721 16.62635563 89.05158707 -0.8125 89.0625 C-2.40191406 89.0615332 -2.40191406 89.0615332 -4.0234375 89.06054688 C-11.92767448 89.11362783 -19.48035392 89.71795711 -27.25 91.25 C-26.92 90.26 -26.59 89.27 -26.25 88.25 C-17.47998317 83.96569115 -2.64649735 82.76159952 6.75 85.25 C8.49886981 85.31624507 10.25002748 85.33552595 12 85.3125 C12.89203125 85.30347656 13.7840625 85.29445313 14.703125 85.28515625 C15.37859375 85.27355469 16.0540625 85.26195313 16.75 85.25 C17.08 86.24 17.41 87.23 17.75 88.25 C18.905 88.20875 20.06 88.1675 21.25 88.125 C25.69481301 88.10912567 29.48724131 89.03206895 33.75 90.25 C33.75 90.91 33.75 91.57 33.75 92.25 C34.6575 92.064375 35.565 91.87875 36.5 91.6875 C39.43314324 91.29265379 41.0144657 91.30308428 43.75 92.25 C43.75 93.57 43.75 94.89 43.75 96.25 C52.27465003 97.28815092 52.27465003 97.28815092 60.75 96.25 C60.42 94.6 60.09 92.95 59.75 91.25 C61.07 91.25 62.39 91.25 63.75 91.25 C65.97739701 90.18798263 65.97739701 90.18798263 68.75 88.25 C69.00030977 85.66619823 69.00030977 85.66619823 68.75 83.25 C69.74 83.25 70.73 83.25 71.75 83.25 C73.90028304 82.30021103 73.90028304 82.30021103 75.75 81.25 C75.75 80.59 75.75 79.93 75.75 79.25 C76.41 79.25 77.07 79.25 77.75 79.25 C77.8325 78.63125 77.915 78.0125 78 77.375 C78.75 75.25 78.75 75.25 80.625 74 C82.75 73.25 82.75 73.25 85.75 73.25 C85.8325 72.5075 85.915 71.765 86 71 C86.91233719 67.65476364 88.24998645 66.60715563 90.75 64.25 C91.7090625 62.703125 91.7090625 62.703125 92.6875 61.125 C94.75 58.25 94.75 58.25 97.4375 57.25 C98.5821875 56.755 98.5821875 56.755 99.75 56.25 C100.64830839 53.19727535 100.64830839 53.19727535 100.75 50.25 C102.4 50.25 104.05 50.25 105.75 50.25 C106.08 49.26 106.41 48.27 106.75 47.25 C107.41 46.26 108.07 45.27 108.75 44.25 C108.42 43.92 108.09 43.59 107.75 43.25 C107.770625 42.280625 107.79125 41.31125 107.8125 40.3125 C108.10137574 37.13968786 108.10137574 37.13968786 105.75 35.25 C104.945625 34.5075 104.945625 34.5075 104.125 33.75 C102.75 32.25 102.75 32.25 102.75 30.25 C101.7290625 30.0953125 101.7290625 30.0953125 100.6875 29.9375 C97.12084011 29.10274981 94.08777806 27.75527246 90.75 26.25 C90.75 25.59 90.75 24.93 90.75 24.25 C89.1 23.92 87.45 23.59 85.75 23.25 C85.255 21.765 85.255 21.765 84.75 20.25 C82.11 20.25 79.47 20.25 76.75 20.25 C76.255 19.26 76.255 19.26 75.75 18.25 C73.85466658 17.78476937 73.85466658 17.78476937 71.6875 17.625 C70.388125 17.50125 69.08875 17.3775 67.75 17.25 C67.75 16.59 67.75 15.93 67.75 15.25 C66.615625 15.188125 65.48125 15.12625 64.3125 15.0625 C59.82301549 14.53105925 56.74877294 12.68676376 52.921875 10.390625 C49.92651412 8.8175218 47.09508692 8.51235976 43.75 8.25 C42.41453557 7.92530992 41.08146497 7.59071971 39.75 7.25 C33.2453171 5.94334083 27.03685279 4.9920193 20.39453125 5.375 C17.75 5.25 17.75 5.25 13.9765625 4.265625 C7.56729036 2.76768011 1.06350227 2.95142865 -5.47875977 2.98925781 C-7.6794806 2.999961 -9.87938233 2.98932443 -12.08007812 2.9765625 C-18.92924635 2.97066604 -25.50634319 3.1312588 -32.19311523 4.80908203 C-35.56728432 5.53237573 -38.81308574 5.37729312 -42.25 5.25 C-42.25 4.92 -42.25 4.59 -42.25 4.25 C-39.62581903 3.76595734 -37.00078403 3.28770502 -34.375 2.8125 C-33.28445312 2.61043945 -33.28445312 2.61043945 -32.171875 2.40429688 C-21.45275429 0.4767357 -10.88502019 0.00943617 0 0 Z " fill="#E6807C" transform="translate(244.25,22.75)"/>
<path d="M0 0 C2.65538189 1.21989822 4.25681792 2.86835703 6.28515625 4.96875 C7.07921875 5.78859375 7.87328125 6.6084375 8.69140625 7.453125 C11.18705051 10.13679725 13.57779484 12.89267059 15.9609375 15.67578125 C18.53072431 18.52500119 21.2434798 21.21059122 23.97265625 23.90625 C27.91501022 27.80018697 31.67248887 31.75787812 35.265625 35.98046875 C37.2486542 38.21761611 39.34459011 40.30679652 41.47265625 42.40625 C44.89848229 45.79143064 48.141971 49.26079143 51.265625 52.92578125 C52.46960636 54.32262004 53.70469375 55.69293862 54.9609375 57.04296875 C55.60417969 57.74035156 56.24742187 58.43773437 56.91015625 59.15625 C57.49667969 59.78015625 58.08320313 60.4040625 58.6875 61.046875 C59.97265625 62.90625 59.97265625 62.90625 59.97265625 66.90625 C58.46655273 68.33496094 58.46655273 68.33496094 56.34375 69.640625 C55.56443115 70.12805176 54.7851123 70.61547852 53.98217773 71.11767578 C53.13341064 71.62540527 52.28464355 72.13313477 51.41015625 72.65625 C50.5375415 73.18847168 49.66492676 73.72069336 48.76586914 74.26904297 C46.17888347 75.83368523 43.57826248 77.37287141 40.97265625 78.90625 C40.328125 79.29393555 39.68359375 79.68162109 39.01953125 80.08105469 C30.50192622 85.16955634 21.52034069 88.81826244 12.28515625 92.40625 C11.13716553 92.85242676 9.9891748 93.29860352 8.80639648 93.75830078 C7.72302002 94.16806152 6.63964355 94.57782227 5.5234375 95 C4.55059814 95.36802734 3.57775879 95.73605469 2.57543945 96.11523438 C-0.02734375 96.90625 -0.02734375 96.90625 -4.02734375 96.90625 C-4.02734375 96.24625 -4.02734375 95.58625 -4.02734375 94.90625 C-3.44726562 94.72449219 -2.8671875 94.54273438 -2.26953125 94.35546875 C2.34895658 92.86932168 6.74587803 91.33664748 10.97265625 88.90625 C11.30265625 88.24625 11.63265625 87.58625 11.97265625 86.90625 C14.03515625 86.28125 14.03515625 86.28125 15.97265625 85.90625 C15.97265625 85.24625 15.97265625 84.58625 15.97265625 83.90625 C16.63265625 83.90625 17.29265625 83.90625 17.97265625 83.90625 C18.30265625 83.24625 18.63265625 82.58625 18.97265625 81.90625 C19.57078125 82.256875 20.16890625 82.6075 20.78515625 82.96875 C23.08078839 84.23929698 23.08078839 84.23929698 25.97265625 82.90625 C27.29265625 82.90625 28.61265625 82.90625 29.97265625 82.90625 C29.97265625 82.24625 29.97265625 81.58625 29.97265625 80.90625 C31.29265625 80.90625 32.61265625 80.90625 33.97265625 80.90625 C34.30265625 78.92625 34.63265625 76.94625 34.97265625 74.90625 C39.47265625 73.40625 39.47265625 73.40625 43.97265625 71.90625 C44.96265625 72.40125 44.96265625 72.40125 45.97265625 72.90625 C45.97265625 71.91625 45.97265625 70.92625 45.97265625 69.90625 C48.61265625 68.91625 51.25265625 67.92625 53.97265625 66.90625 C53.64265625 65.25625 53.31265625 63.60625 52.97265625 61.90625 C52.97265625 62.56625 52.97265625 63.22625 52.97265625 63.90625 C52.31265625 63.90625 51.65265625 63.90625 50.97265625 63.90625 C51.30265625 61.92625 51.63265625 59.94625 51.97265625 57.90625 C49.66265625 57.90625 47.35265625 57.90625 44.97265625 57.90625 C43.55888284 55.26720629 42.6002549 52.83504371 41.97265625 49.90625 C39.99265625 49.90625 38.01265625 49.90625 35.97265625 49.90625 C35.47765625 46.44125 35.47765625 46.44125 34.97265625 42.90625 C34.20953125 42.761875 33.44640625 42.6175 32.66015625 42.46875 C29.97265625 41.90625 29.97265625 41.90625 26.97265625 40.90625 C26.97265625 38.59625 26.97265625 36.28625 26.97265625 33.90625 C24.99265625 33.90625 23.01265625 33.90625 20.97265625 33.90625 C20.97265625 33.24625 20.97265625 32.58625 20.97265625 31.90625 C20.31265625 31.90625 19.65265625 31.90625 18.97265625 31.90625 C18.86953125 30.9575 18.76640625 30.00875 18.66015625 29.03125 C18.2872633 25.61517499 18.2872633 25.61517499 14.97265625 23.90625 C15.30265625 23.24625 15.63265625 22.58625 15.97265625 21.90625 C12.12362077 18.40447935 12.12362077 18.40447935 6.97265625 17.90625 C6.97265625 16.25625 6.97265625 14.60625 6.97265625 12.90625 C4.66265625 12.57625 2.35265625 12.24625 -0.02734375 11.90625 C-0.02734375 10.91625 -0.02734375 9.92625 -0.02734375 8.90625 C-0.65382813 8.78507812 -1.2803125 8.66390625 -1.92578125 8.5390625 C-3.15167969 8.28769531 -3.15167969 8.28769531 -4.40234375 8.03125 C-5.21445312 7.86882812 -6.0265625 7.70640625 -6.86328125 7.5390625 C-9.02734375 6.90625 -9.02734375 6.90625 -11.02734375 4.90625 C-9.61983154 4.03708113 -8.20089165 3.18639851 -6.77734375 2.34375 C-5.9884375 1.86808594 -5.19953125 1.39242188 -4.38671875 0.90234375 C-2.02734375 -0.09375 -2.02734375 -0.09375 0 0 Z " fill="#D23A3D" transform="translate(301.02734375,302.09375)"/>
<path d="M0 0 C0.66 0 1.32 0 2 0 C2.75 2.0625 2.75 2.0625 3 5 C2.03684502 6.76578412 1.06567445 8.53055172 -0.015625 10.2265625 C-1.39282106 12.70770143 -1.6114943 15.21570913 -2 18 C-4 20 -4 20 -6 21 C-6.40197001 23.32249342 -6.72686657 25.65885633 -7 28 C-7.61136251 31.3897868 -8.43322899 34.64369923 -9.4375 37.9375 C-9.83582031 39.25234375 -9.83582031 39.25234375 -10.2421875 40.59375 C-10.80744995 42.38860397 -11.42244537 44.16793721 -12.0625 45.9375 C-14.43309051 53.68142898 -15.24656564 61.60873616 -15.75390625 69.6640625 C-16 72 -16 72 -17 73 C-17.25748896 77.28513558 -17.18525056 81.58307117 -17.1875 85.875 C-17.19974609 87.06609375 -17.21199219 88.2571875 -17.22460938 89.484375 C-17.23535653 96.03297782 -16.85190789 102.1666707 -15.48583984 108.57763672 C-14.66313464 112.67958697 -14.38154325 116.83835233 -14 121 C-13.76558339 123.38323558 -13.45147285 125.64230845 -13 128 C-12.34 128.33 -11.68 128.66 -11 129 C-10.375 132.0625 -10.375 132.0625 -10 135 C-7.36 133.02 -4.72 131.04 -2 129 C-2.9939506 131.67602083 -3.91449493 133.88489703 -5.625 136.1875 C-7.6873911 140.40602725 -7.57495042 144.38546283 -7 149 C-6.04987876 151.02417134 -5.05008653 153.02583732 -4 155 C-3.46643708 157.98894043 -3.19516401 160.97159295 -3 164 C-18.74388742 145.91838384 -20.43246113 109.3832687 -20.3125 86.8125 C-20.31067719 86.09422028 -20.30885437 85.37594055 -20.30697632 84.63589478 C-20.25695379 72.87343077 -19.51093634 61.51356175 -17 50 C-16.82839355 49.18853516 -16.65678711 48.37707031 -16.47998047 47.54101562 C-12.91254327 31.0523783 -7.39737224 15.16972648 0 0 Z " fill="#A53236" transform="translate(71,128)"/>
<path d="M0 0 C0.99 0.495 0.99 0.495 2 1 C2.63945087 3.3547551 3.18047249 5.67899945 3.6875 8.0625 C9.75925075 34.03918615 25.8535161 56.62101633 48.3828125 71.00390625 C48.91648438 71.33261719 49.45015625 71.66132813 50 72 C48.68 73.32 47.36 74.64 46 76 C43.46189956 74.13872635 41.22516749 72.22516749 39 70 C38.67 70.66 38.34 71.32 38 72 C37.34 72 36.68 72 36 72 C36 69.69 36 67.38 36 65 C34.35 65 32.7 65 31 65 C29.23537317 61.91190305 29 60.76687864 29 57 C26.69 56.34 24.38 55.68 22 55 C21.9175 54.401875 21.835 53.80375 21.75 53.1875 C20.76887152 50.32587525 19.60188573 49.48679185 17 48 C15.68 48 14.36 48 13 48 C12.2717552 43.00632136 11.61512818 38.00890086 11 33 C9.35 32.67 7.7 32.34 6 32 C6.020625 32.94875 6.04125 33.8975 6.0625 34.875 C6 38 6 38 5 40 C4.9603287 41.66619446 4.95615553 43.33391013 5 45 C-2.07256506 32.24570904 -0.13156179 14.10634767 0 0 Z " fill="#640505" transform="translate(140,231)"/>
<path d="M0 0 C0.33 0 0.66 0 1 0 C1.3203125 2.1640625 1.3203125 2.1640625 1 5 C-0.66256346 7.00572603 -2.21671423 8.64117203 -4.125 10.375 C-8.35942051 14.39705285 -12.28957564 18.48732172 -16 23 C-19.42885007 22.24022198 -22.29778558 20.90694797 -25.43212891 19.32055664 C-41.03463366 11.47996721 -57.12364437 7.80158707 -74.5625 7.8125 C-76.15191406 7.8115332 -76.15191406 7.8115332 -77.7734375 7.81054688 C-85.67767448 7.86362783 -93.23035392 8.46795711 -101 10 C-100.67 9.01 -100.34 8.02 -100 7 C-91.22998317 2.71569115 -76.39649735 1.51159952 -67 4 C-65.25113019 4.06624507 -63.49997252 4.08552595 -61.75 4.0625 C-60.85796875 4.05347656 -59.9659375 4.04445313 -59.046875 4.03515625 C-58.37140625 4.02355469 -57.6959375 4.01195313 -57 4 C-56.505 5.485 -56.505 5.485 -56 7 C-54.845 6.95875 -53.69 6.9175 -52.5 6.875 C-48.05518699 6.85912567 -44.26275869 7.78206895 -40 9 C-40 9.66 -40 10.32 -40 11 C-39.0925 10.814375 -38.185 10.62875 -37.25 10.4375 C-34.31685676 10.04265379 -32.7355343 10.05308428 -30 11 C-30 12.32 -30 13.64 -30 15 C-21.47534997 16.03815092 -21.47534997 16.03815092 -13 15 C-13.495 12.525 -13.495 12.525 -14 10 C-12.68 10 -11.36 10 -10 10 C-7.77260299 8.93798263 -7.77260299 8.93798263 -5 7 C-4.74969023 4.41619823 -4.74969023 4.41619823 -5 2 C-4.01 2 -3.02 2 -2 2 C-1.34 1.34 -0.68 0.68 0 0 Z " fill="#E36567" transform="translate(318,104)"/>
<path d="M0 0 C2.65538189 1.21989822 4.25681792 2.86835703 6.28515625 4.96875 C7.07277344 5.78214844 7.86039062 6.59554688 8.671875 7.43359375 C11.27320405 10.22924959 13.7910931 13.08079296 16.26171875 15.9921875 C18.59725711 18.60500439 21.16600478 20.93999913 23.78515625 23.265625 C24.97265625 24.90625 24.97265625 24.90625 24.66015625 27.109375 C24.43328125 27.70234375 24.20640625 28.2953125 23.97265625 28.90625 C25.29265625 29.23625 26.61265625 29.56625 27.97265625 29.90625 C28.15828125 30.8653125 28.15828125 30.8653125 28.34765625 31.84375 C28.55390625 32.524375 28.76015625 33.205 28.97265625 33.90625 C29.96265625 34.40125 29.96265625 34.40125 30.97265625 34.90625 C30.97265625 35.89625 30.97265625 36.88625 30.97265625 37.90625 C32.29265625 37.90625 33.61265625 37.90625 34.97265625 37.90625 C34.64265625 39.22625 34.31265625 40.54625 33.97265625 41.90625 C31.66265625 41.90625 29.35265625 41.90625 26.97265625 41.90625 C26.97265625 39.26625 26.97265625 36.62625 26.97265625 33.90625 C24.99265625 33.90625 23.01265625 33.90625 20.97265625 33.90625 C20.97265625 33.24625 20.97265625 32.58625 20.97265625 31.90625 C20.31265625 31.90625 19.65265625 31.90625 18.97265625 31.90625 C18.86953125 30.9575 18.76640625 30.00875 18.66015625 29.03125 C18.2872633 25.61517499 18.2872633 25.61517499 14.97265625 23.90625 C15.30265625 23.24625 15.63265625 22.58625 15.97265625 21.90625 C12.12362077 18.40447935 12.12362077 18.40447935 6.97265625 17.90625 C6.97265625 16.25625 6.97265625 14.60625 6.97265625 12.90625 C4.66265625 12.57625 2.35265625 12.24625 -0.02734375 11.90625 C-0.02734375 10.91625 -0.02734375 9.92625 -0.02734375 8.90625 C-0.65382813 8.78507812 -1.2803125 8.66390625 -1.92578125 8.5390625 C-3.15167969 8.28769531 -3.15167969 8.28769531 -4.40234375 8.03125 C-5.21445312 7.86882812 -6.0265625 7.70640625 -6.86328125 7.5390625 C-9.02734375 6.90625 -9.02734375 6.90625 -11.02734375 4.90625 C-9.61983154 4.03708113 -8.20089165 3.18639851 -6.77734375 2.34375 C-5.9884375 1.86808594 -5.19953125 1.39242188 -4.38671875 0.90234375 C-2.02734375 -0.09375 -2.02734375 -0.09375 0 0 Z " fill="#B91C20" transform="translate(301.02734375,302.09375)"/>
<path d="M0 0 C-1.54107422 0.74443359 -1.54107422 0.74443359 -3.11328125 1.50390625 C-24.30350746 11.84254119 -40.56833507 24.64369357 -53.0546875 44.8984375 C-54.60744975 47.37412671 -56.20033826 49.70231866 -58 52 C-57.88637738 50.5199159 -57.75877092 49.04089926 -57.625 47.5625 C-57.55539063 46.73878906 -57.48578125 45.91507813 -57.4140625 45.06640625 C-57.27742187 44.38449219 -57.14078125 43.70257813 -57 43 C-56.01 42.505 -56.01 42.505 -55 42 C-54.525625 41.175 -54.05125 40.35 -53.5625 39.5 C-52 37 -52 37 -49 36 C-48.90460938 35.26394531 -48.80921875 34.52789062 -48.7109375 33.76953125 C-47.90017225 30.61111058 -46.78244999 29.10439018 -44.625 26.6875 C-44.01914063 25.99011719 -43.41328125 25.29273438 -42.7890625 24.57421875 C-41 23 -41 23 -38 23 C-37.67 21.68 -37.34 20.36 -37 19 C-36.34 19 -35.68 19 -35 19 C-35 18.34 -35 17.68 -35 17 C-34.34 16.34 -33.68 15.68 -33 15 C-33.66 14.34 -34.32 13.68 -35 13 C-37.60280568 13.32041397 -37.60280568 13.32041397 -40 14 C-38.44625634 10.89251268 -35.4080983 10.37296692 -32.3125 9.1875 C-31.64420166 8.92614258 -30.97590332 8.66478516 -30.28735352 8.39550781 C-23.57528824 5.79117913 -16.80493617 3.35064128 -10 1 C-8.95972656 0.60296875 -7.91945312 0.2059375 -6.84765625 -0.203125 C-3.98457915 -1.0043153 -2.72698236 -1.04883937 0 0 Z " fill="#781311" transform="translate(208,117)"/>
<path d="M0 0 C6.52307692 0.61538462 6.52307692 0.61538462 8.9375 2.5625 C9.288125 3.036875 9.63875 3.51125 10 4 C8.6124182 7.13879381 7.00476592 9.22254795 4.55078125 11.609375 C3.86693359 12.28226563 3.18308594 12.95515625 2.47851562 13.6484375 C1.76373047 14.34195313 1.04894531 15.03546875 0.3125 15.75 C-4.41473714 20.35894669 -8.97611262 25.01193309 -13.28295898 30.01806641 C-16.17350937 33.35454985 -19.1798415 36.58180902 -22.1875 39.8125 C-22.79013672 40.46669922 -23.39277344 41.12089844 -24.01367188 41.79492188 C-26.83701704 44.8290107 -29.53099427 47.6844602 -33 50 C-32.505 47.03 -32.505 47.03 -32 44 C-31.34 44 -30.68 44 -30 44 C-29.87625 43.071875 -29.87625 43.071875 -29.75 42.125 C-29 40 -29 40 -27.125 38.75 C-25 38 -25 38 -22 38 C-21.9175 37.2575 -21.835 36.515 -21.75 35.75 C-20.83766281 32.40476364 -19.50001355 31.35715563 -17 29 C-16.360625 27.96875 -15.72125 26.9375 -15.0625 25.875 C-13 23 -13 23 -10.3125 22 C-9.549375 21.67 -8.78625 21.34 -8 21 C-7.10169161 17.94727535 -7.10169161 17.94727535 -7 15 C-5.35 15 -3.7 15 -2 15 C-1.67 14.01 -1.34 13.02 -1 12 C-0.34 11.01 0.32 10.02 1 9 C0.505 8.505 0.505 8.505 0 8 C-0.14115161 5.32941149 -0.04247107 2.67567762 0 0 Z " fill="#E56C6C" transform="translate(352,58)"/>
<path d="M0 0 C0.66 0 1.32 0 2 0 C2.75 2.0625 2.75 2.0625 3 5 C2.03684502 6.76578412 1.06567445 8.53055172 -0.015625 10.2265625 C-1.39282106 12.70770143 -1.6114943 15.21570913 -2 18 C-4 20 -4 20 -6 21 C-6.40197001 23.32249342 -6.72686657 25.65885633 -7 28 C-7.61136251 31.3897868 -8.43322899 34.64369923 -9.4375 37.9375 C-9.70175781 38.80761719 -9.96601562 39.67773438 -10.23828125 40.57421875 C-10.835573 42.47636326 -11.47283381 44.36596433 -12.125 46.25 C-13.04884824 49.15352304 -13.56957405 51.98701834 -14 55 C-14.33 55 -14.66 55 -15 55 C-16.06838205 48.31763526 -15.82027365 43.40512591 -13.9375 36.9375 C-13.70998047 36.11894531 -13.48246094 35.30039063 -13.24804688 34.45703125 C-9.85264663 22.56852956 -5.33887401 11.15021475 0 0 Z " fill="#B52B30" transform="translate(71,128)"/>
<path d="M0 0 C-4.97773912 2.79409796 -10.3615665 3.22043493 -15.9375 4.0625 C-17.67193359 4.3258313 -17.67193359 4.3258313 -19.44140625 4.59448242 C-26.78497886 5.65819085 -34.08815603 6.45235805 -41.5 6.8125 C-42.72384399 6.87352905 -42.72384399 6.87352905 -43.97241211 6.93579102 C-58.84037252 7.4608307 -58.84037252 7.4608307 -65 4 C-65 3.34 -65 2.68 -65 2 C-61.37 2 -57.74 2 -54 2 C-54 2.66 -54 3.32 -54 4 C-52.88625 3.835 -51.7725 3.67 -50.625 3.5 C-47.53977538 3.10750002 -44.59537965 2.98368131 -41.48828125 3.0625 C-34.36877536 3.09926617 -27.40655239 2.02130704 -20.36523438 1.06640625 C-13.53054671 0.18315431 -6.89049132 -0.18495665 0 0 Z " fill="#902F30" transform="translate(294,400)"/>
<path d="M0 0 C-0.00333092 0.86085709 -0.00333092 0.86085709 -0.00672913 1.73910522 C-0.02915718 7.80816005 -0.04405982 13.87720279 -0.05493164 19.94628906 C-0.05990609 22.19987467 -0.06668803 24.45345715 -0.07543945 26.70703125 C-0.12637183 40.17714684 0.04161663 53.56102321 1 67 C0.67 67 0.34 67 0 67 C-0.50734284 64.6263603 -1.00602386 62.25142575 -1.5 59.875 C-1.64308594 59.20984375 -1.78617188 58.5446875 -1.93359375 57.859375 C-2.76263625 53.83259714 -3.14278823 50.10516159 -3 46 C-3 45.01 -3 44.02 -3 43 C-2.6937566 41.66018514 -2.36548445 40.32488113 -2 39 C-2.66 39 -3.32 39 -4 39 C-4 38.01 -4 37.02 -4 36 C-3.34 36 -2.68 36 -2 36 C-2.48895752 34.70231689 -2.48895752 34.70231689 -2.98779297 33.37841797 C-3.99638608 30.01206209 -4.23134822 27.44077767 -4.1953125 23.9453125 C-4.18886719 22.83671875 -4.18242187 21.728125 -4.17578125 20.5859375 C-4.15902344 19.44382813 -4.14226562 18.30171875 -4.125 17.125 C-4.11597656 15.9596875 -4.10695312 14.794375 -4.09765625 13.59375 C-4.07417432 10.72895423 -4.04133141 7.86458465 -4 5 C-4.99 5 -5.98 5 -7 5 C-8.33981486 4.6937566 -9.67511887 4.36548445 -11 4 C-9.35500958 3.33125616 -7.70898352 2.66505926 -6.0625 2 C-5.14597656 1.62875 -4.22945312 1.2575 -3.28515625 0.875 C-1 0 -1 0 0 0 Z " fill="#942629" transform="translate(141,201)"/>
<path d="M0 0 C1.3303125 0.2784375 1.3303125 0.2784375 2.6875 0.5625 C5.91126255 0.98827996 7.87217684 0.64160475 11 0 C13.8125 0.4375 13.8125 0.4375 16 1 C16 2.65 16 4.3 16 6 C18.97851562 5.90234375 18.97851562 5.90234375 21.95703125 5.8046875 C24 6 24 6 27 8 C29.27912938 8.45394552 29.27912938 8.45394552 31.6875 8.625 C32.49574219 8.69976562 33.30398437 8.77453125 34.13671875 8.8515625 C34.75160156 8.90054687 35.36648437 8.94953125 36 9 C36 9.66 36 10.32 36 11 C36.96421875 10.96519531 37.9284375 10.93039062 38.921875 10.89453125 C40.18515625 10.86746094 41.4484375 10.84039062 42.75 10.8125 C44.62945312 10.76029297 44.62945312 10.76029297 46.546875 10.70703125 C50.14109357 11.01197061 51.44725126 11.54394629 54 14 C47.98554547 14.10676547 42.30970205 13.83485446 36.375 12.875 C35.18076416 12.68466187 35.18076416 12.68466187 33.96240234 12.49047852 C21.88998219 10.43819029 9.33327058 7.70687177 -2 3 C-1.34 2.67 -0.68 2.34 0 2 C0 1.34 0 0.68 0 0 Z " fill="#EF292C" transform="translate(179,392)"/>
<path d="M0 0 C1.32 0.33 2.64 0.66 4 1 C4 1.66 4 2.32 4 3 C3.29875 3.2475 2.5975 3.495 1.875 3.75 C-2.24991314 5.5434405 -5.8156188 7.8156188 -9 11 C-9.515625 11.45375 -10.03125 11.9075 -10.5625 12.375 C-12.157795 13.9094718 -12.157795 13.9094718 -12.4375 16.0625 C-12.623125 16.701875 -12.80875 17.34125 -13 18 C-14.31403276 18.70394612 -15.6520257 19.36345658 -17 20 C-17.78375 20.845625 -18.5675 21.69125 -19.375 22.5625 C-22.34764558 25.32281376 -24.02321445 25.72254985 -28 26 C-25.52455796 20.20846245 -20.6086973 16.15808763 -16.25 11.75 C-15.35539062 10.81414062 -14.46078125 9.87828125 -13.5390625 8.9140625 C-12.66507813 8.02976562 -11.79109375 7.14546875 -10.890625 6.234375 C-9.70001465 5.01572754 -9.70001465 5.01572754 -8.48535156 3.77246094 C-5.44058304 1.60104448 -3.65989876 1.64051013 0 2 C0 1.34 0 0.68 0 0 Z " fill="#EC2B2F" transform="translate(124,67)"/>
<path d="M0 0 C1.65 0 3.3 0 5 0 C-2.47700166 8.51909248 -16.46073754 12.5444654 -26.6875 16.5 C-27.83420166 16.94545166 -28.98090332 17.39090332 -30.16235352 17.84985352 C-38.48628327 21 -38.48628327 21 -43 21 C-43 20.34 -43 19.68 -43 19 C-42.41992188 18.81824219 -41.83984375 18.63648438 -41.2421875 18.44921875 C-36.62369967 16.96307168 -32.22677822 15.43039748 -28 13 C-27.67 12.34 -27.34 11.68 -27 11 C-24.9375 10.375 -24.9375 10.375 -23 10 C-23 9.34 -23 8.68 -23 8 C-22.34 8 -21.68 8 -21 8 C-20.67 7.34 -20.34 6.68 -20 6 C-19.1028125 6.5259375 -19.1028125 6.5259375 -18.1875 7.0625 C-15.89186786 8.33304698 -15.89186786 8.33304698 -13 7 C-11.68 7 -10.36 7 -9 7 C-9 6.34 -9 5.68 -9 5 C-7.68 5 -6.36 5 -5 5 C-5 4.34 -5 3.68 -5 3 C-3.68 3 -2.36 3 -1 3 C-0.67 2.01 -0.34 1.02 0 0 Z " fill="#C23B40" transform="translate(340,378)"/>
<path d="M0 0 C2.625 0.9375 2.625 0.9375 5 2 C4.67 3.32 4.34 4.64 4 6 C5.65 5.34 7.3 4.68 9 4 C9.33 4.66 9.66 5.32 10 6 C9.34 6 8.68 6 8 6 C8 6.66 8 7.32 8 8 C10.97 8.66 13.94 9.32 17 10 C17.33 9.34 17.66 8.68 18 8 C18.33 8.99 18.66 9.98 19 11 C21.01508358 11.73323796 21.01508358 11.73323796 23 12 C23 12.66 23 13.32 23 14 C24.32 14.66 25.64 15.32 27 16 C27 16.66 27 17.32 27 18 C22.5115089 17.32542908 18.55982822 15.6979961 14.4375 13.875 C13.73947266 13.56876709 13.04144531 13.26253418 12.32226562 12.94702148 C5.93015809 10.08151848 -0.052571 6.70587905 -6 3 C-4 2 -2 1 0 0 Z " fill="#E14345" transform="translate(150,376)"/>
<path d="M0 0 C0 0.66 0 1.32 0 2 C-1.98 2.66 -3.96 3.32 -6 4 C-6 4.66 -6 5.32 -6 6 C-7.8359375 7.19140625 -7.8359375 7.19140625 -10.375 8.5625 C-16.30948843 11.99913878 -21.02746907 16.31901812 -26 21 C-27.4923561 22.36258601 -28.99171511 23.71756727 -30.5 25.0625 C-31.1290625 25.63097656 -31.758125 26.19945312 -32.40625 26.78515625 C-34 28 -34 28 -36 28 C-36.25652344 28.58523437 -36.51304688 29.17046875 -36.77734375 29.7734375 C-38.10562162 32.19234608 -39.56524801 33.73198872 -41.5625 35.625 C-44.14015389 38.04521959 -44.14015389 38.04521959 -46 41 C-46.66 41 -47.32 41 -48 41 C-47.33333333 39.66666667 -46.66666667 38.33333333 -46 37 C-45.690625 36.278125 -45.38125 35.55625 -45.0625 34.8125 C-44 33 -44 33 -41 32 C-39.51370857 30.53764938 -39.51370857 30.53764938 -38.125 28.75 C-35.57238182 25.65129933 -32.83979342 22.83979342 -30 20 C-29.34 19.01 -28.68 18.02 -28 17 C-27.175 16.87625 -26.35 16.7525 -25.5 16.625 C-24.675 16.41875 -23.85 16.2125 -23 16 C-22.29788106 14.34795544 -21.63028587 12.68076231 -21 11 C-18.84657966 10.12517299 -17.30989225 10 -15 10 C-15 9.34 -15 8.68 -15 8 C-14.34 8 -13.68 8 -13 8 C-13 7.34 -13 6.68 -13 6 C-10.91796875 4.4921875 -10.91796875 4.4921875 -8.1875 2.875 C-7.29417969 2.33617187 -6.40085938 1.79734375 -5.48046875 1.2421875 C-3 0 -3 0 0 0 Z " fill="#CB1B22" transform="translate(144,143)"/>
<path d="M0 0 C1 3 1 3 0.25 4.8125 C-0.1625 5.534375 -0.575 6.25625 -1 7 C-2.60300591 10.13631591 -4.09860596 13.24008407 -5.4375 16.5 C-7.01399594 20.03135091 -8.77664234 22.85663227 -11 26 C-11.66 25.67 -12.32 25.34 -13 25 C-13.66 26.98 -14.32 28.96 -15 31 C-15.66 30.67 -16.32 30.34 -17 30 C-15.77082114 22.13325532 -12.68828402 15.96842168 -8 9.6875 C-7.56171875 9.08099609 -7.1234375 8.47449219 -6.671875 7.84960938 C-4.61861334 5.03874364 -2.57847038 2.34946149 0 0 Z " fill="#D53337" transform="translate(95,93)"/>
<path d="M0 0 C3.43086035 1.45945284 5.42807725 3.33151593 7.9375 6.0625 C13.3518752 11.6398497 19.52662081 15.76779073 26 20 C24.68 21.32 23.36 22.64 22 24 C19.46189956 22.13872635 17.22516749 20.22516749 15 18 C14.67 18.66 14.34 19.32 14 20 C13.34 20 12.68 20 12 20 C12 17.69 12 15.38 12 13 C10.35 13 8.7 13 7 13 C5.23537317 9.91190305 5 8.76687864 5 5 C4.360625 4.731875 3.72125 4.46375 3.0625 4.1875 C1 3 1 3 0 0 Z " fill="#682427" transform="translate(164,283)"/>
<path d="M0 0 C3.48539917 0.64544429 6.02819057 2.10134397 9 4 C8.67 5.32 8.34 6.64 8 8 C9.32 8.33 10.64 8.66 12 9 C12.12375 9.639375 12.2475 10.27875 12.375 10.9375 C12.58125 11.618125 12.7875 12.29875 13 13 C13.66 13.33 14.32 13.66 15 14 C15 14.99 15 15.98 15 17 C16.32 17 17.64 17 19 17 C18.67 18.32 18.34 19.64 18 21 C15.69 21 13.38 21 11 21 C11 18.36 11 15.72 11 13 C9.02 13 7.04 13 5 13 C5 12.34 5 11.68 5 11 C4.34 11 3.68 11 3 11 C2.896875 10.05125 2.79375 9.1025 2.6875 8.125 C2.31460705 4.70892499 2.31460705 4.70892499 -1 3 C-0.67 2.01 -0.34 1.02 0 0 Z " fill="#C82627" transform="translate(317,323)"/>
<path d="M0 0 C-0.5625 1.875 -0.5625 1.875 -2 4 C-4.31029085 4.74259349 -6.645752 5.411438 -9 6 C-9.66 6.66 -10.32 7.32 -11 8 C-11 7.34 -11 6.68 -11 6 C-11.80050781 6.38091797 -11.80050781 6.38091797 -12.6171875 6.76953125 C-17.66730225 9.10236972 -22.66898546 10.90547592 -28.03125 12.38671875 C-29.98202048 12.8270846 -29.98202048 12.8270846 -31 14 C-32.66617115 14.04063832 -34.33388095 14.042721 -36 14 C-36 14.66 -36 15.32 -36 16 C-37.32 15.67 -38.64 15.34 -40 15 C-31.69613763 10.46546765 -23.26051797 6.80848484 -14.375 3.5625 C-13.41513184 3.20865234 -12.45526367 2.85480469 -11.46630859 2.49023438 C-10.55703613 2.16474609 -9.64776367 1.83925781 -8.7109375 1.50390625 C-7.89931152 1.21330322 -7.08768555 0.9227002 -6.25146484 0.62329102 C-4 0 -4 0 0 0 Z " fill="#DD585B" transform="translate(194,30)"/>
<path d="M0 0 C1.8115721 0.0616181 3.62505032 0.08732808 5.4375 0.0625 C6.30246094 0.05347656 7.16742188 0.04445313 8.05859375 0.03515625 C8.69925781 0.02355469 9.33992188 0.01195313 10 0 C10.495 1.485 10.495 1.485 11 3 C10.34741211 2.98428955 9.69482422 2.9685791 9.02246094 2.95239258 C-5.65197697 2.64785302 -19.56614483 3.2906283 -34 6 C-33.67 5.01 -33.34 4.02 -33 3 C-23.07818882 -1.58834746 -10.56881584 -1.62128317 0 0 Z " fill="#E35352" transform="translate(251,108)"/>
<path d="M0 0 C0 3 0 3 -2 6.0625 C-4.67996439 10.56407719 -4.73249725 14.88955408 -4 20 C-3.04987876 22.02417134 -2.05008653 24.02583732 -1 26 C-0.46643708 28.98894043 -0.19516401 31.97159295 0 35 C-7.59655805 25.69310578 -8.82431764 14.54712229 -9 3 C-8.01 4.485 -8.01 4.485 -7 6 C-4.69 4.02 -2.38 2.04 0 0 Z " fill="#A01515" transform="translate(68,257)"/>
<path d="M0 0 C2.7245974 3.50180627 5.1143088 7.20149183 7.5 10.9375 C7.89058594 11.54529297 8.28117188 12.15308594 8.68359375 12.77929688 C15.27002146 23.05811587 15.27002146 23.05811587 16 27 C14.68 26.67 13.36 26.34 12 26 C11.87625 25.1028125 11.87625 25.1028125 11.75 24.1875 C10.76887152 21.32587525 9.60188573 20.48679185 7 19 C5.68 19 4.36 19 3 19 C2.87625 18.01 2.7525 17.02 2.625 16 C2.23431666 13.20859582 1.65820133 10.53685325 0.9375 7.8125 C0 4 0 4 0 0 Z " fill="#62191A" transform="translate(150,260)"/>
<path d="M0 0 C1.32 0.33 2.64 0.66 4 1 C3.33355469 1.62003906 2.66710937 2.24007812 1.98046875 2.87890625 C-3.50633263 8.15083988 -8.42830457 13.54983378 -12.9375 19.6875 C-13.38520752 20.29215088 -13.83291504 20.89680176 -14.29418945 21.51977539 C-17.37513095 25.81056841 -19.7330864 30.22948809 -22 35 C-22.95821359 31.62103629 -23.01444422 29.41222148 -22 26 C-21.34 25.67 -20.68 25.34 -20 25 C-19.525625 24.175 -19.05125 23.35 -18.5625 22.5 C-17 20 -17 20 -14 19 C-13.90460938 18.26394531 -13.80921875 17.52789062 -13.7109375 16.76953125 C-12.90017225 13.61111058 -11.78244999 12.10439018 -9.625 9.6875 C-9.01914063 8.99011719 -8.41328125 8.29273438 -7.7890625 7.57421875 C-6 6 -6 6 -3 6 C-2.67 4.68 -2.34 3.36 -2 2 C-1.34 2 -0.68 2 0 2 C0 1.34 0 0.68 0 0 Z " fill="#6D1B1D" transform="translate(173,134)"/>
<path d="M0 0 C0.66 0 1.32 0 2 0 C2 0.66 2 1.32 2 2 C2.66 2 3.32 2 4 2 C4 2.99 4 3.98 4 5 C5.32 4.67 6.64 4.34 8 4 C8 4.66 8 5.32 8 6 C9.65 6 11.3 6 13 6 C13.33 8.31 13.66 10.62 14 13 C15.98 13 17.96 13 20 13 C21.32 15.64 22.64 18.28 24 21 C19.27093653 19.46528506 15.93071061 16.83078892 12.125 13.75 C11.19953369 13.01172974 11.19953369 13.01172974 10.25537109 12.25854492 C6.09406842 8.92521731 2.00105319 5.52473733 -2 2 C-1.34 1.34 -0.68 0.68 0 0 Z " fill="#D33640" transform="translate(115,354)"/>
<path d="M0 0 C-0.85722656 0.25394531 -1.71445313 0.50789063 -2.59765625 0.76953125 C-8.56721778 2.56645676 -14.30182119 4.45617017 -20 7 C-24.32276128 8.69439994 -28.66048852 10.34902796 -33 12 C-34 10 -34 10 -33.5 7.9375 C-32 6 -32 6 -28.625 5.3125 C-27.42875 5.209375 -26.2325 5.10625 -25 5 C-22.78062807 4.55612561 -21.16897454 4.09322733 -19.1875 3 C-16.20204091 1.6352187 -13.24338336 1.44736322 -10 1 C-8.948125 0.62875 -7.89625 0.2575 -6.8125 -0.125 C-3.83654078 -1.05085398 -2.87096295 -0.87296946 0 0 Z " fill="#D83032" transform="translate(204,117)"/>
<path d="M0 0 C0.556875 0.33 1.11375 0.66 1.6875 1 C4.30284522 2.1309601 6.1806646 2.15662974 9 2 C10.33332095 4.6666419 9.67102033 6.16680303 9 9 C9.66 9.33 10.32 9.66 11 10 C11 11.32 11 12.64 11 14 C11.99 14.33 12.98 14.66 14 15 C14 15.66 14 16.32 14 17 C15.98 17.66 17.96 18.32 20 19 C19.67 19.99 19.34 20.98 19 22 C15.46047575 21.43804898 14.06637648 20.34243442 11.8359375 17.578125 C11.27132812 16.88203125 10.70671875 16.1859375 10.125 15.46875 C9.5475 14.7365625 8.97 14.004375 8.375 13.25 C7.78976563 12.53328125 7.20453125 11.8165625 6.6015625 11.078125 C3.76915039 7.54410622 1.33429779 4.40144986 0 0 Z " fill="#8C0908" transform="translate(179,358)"/>
<path d="M0 0 C0 0.99 0 1.98 0 3 C-0.66 3 -1.32 3 -2 3 C-2.33 4.32 -2.66 5.64 -3 7 C-4.98 7 -6.96 7 -9 7 C-9.07347656 7.76699219 -9.14695313 8.53398438 -9.22265625 9.32421875 C-10 12 -10 12 -11.99609375 13.58203125 C-12.80175781 13.98808594 -13.60742188 14.39414063 -14.4375 14.8125 C-15.64212891 15.44091797 -15.64212891 15.44091797 -16.87109375 16.08203125 C-19 17 -19 17 -21 17 C-21 17.66 -21 18.32 -21 19 C-22.32 18.67 -23.64 18.34 -25 18 C-17.78085207 11.03456015 -9.0007758 4.5003879 0 0 Z " fill="#DB4043" transform="translate(145,50)"/>
<path d="M0 0 C3.66048407 1.47548146 5.3078677 3.41218609 7.625 6.5625 C11.25334331 11.25760342 15.21809856 15.12135258 19.703125 18.9921875 C21.89992667 20.91252093 23.96097442 22.91420778 26 25 C22.20696275 23.99806563 19.28463659 23.18975773 16 21 C16 20.34 16 19.68 16 19 C15.34 18.67 14.68 18.34 14 18 C12.875 15.9375 12.875 15.9375 12 14 C10.68 14 9.36 14 8 14 C7.731875 13.21625 7.46375 12.4325 7.1875 11.625 C6.15185568 8.71885077 6.15185568 8.71885077 3 7 C0 3.55555556 0 3.55555556 0 0 Z " fill="#E13130" transform="translate(184,368)"/>
<path d="M0 0 C2.35564596 0.44811137 2.35564596 0.44811137 4.75 0.625 C5.54921875 0.69976562 6.3484375 0.77453125 7.171875 0.8515625 C7.77515625 0.90054687 8.3784375 0.94953125 9 1 C9 1.66 9 2.32 9 3 C9.96421875 2.96519531 10.9284375 2.93039062 11.921875 2.89453125 C13.18515625 2.86746094 14.4484375 2.84039062 15.75 2.8125 C17.00296875 2.77769531 18.2559375 2.74289062 19.546875 2.70703125 C23.14109357 3.01197061 24.44725126 3.54394629 27 6 C20.74500351 6.1308316 14.91296782 5.72581571 8.75 4.6875 C7.93168701 4.55432373 7.11337402 4.42114746 6.27026367 4.28393555 C-0.55944222 3.14219547 -7.28590483 1.69961835 -14 0 C-14 -0.33 -14 -0.66 -14 -1 C-12.41870971 -1.22331199 -10.83478911 -1.42804644 -9.25 -1.625 C-8.36828125 -1.74101562 -7.4865625 -1.85703125 -6.578125 -1.9765625 C-3.70107902 -2.00271746 -2.48987563 -1.3437424 0 0 Z " fill="#D6625E" transform="translate(206,400)"/>
<path d="M0 0 C1.875 0.25 1.875 0.25 4 1 C5.72101535 3.58152302 6 4.84918025 6 8 C6.66 7.67 7.32 7.34 8 7 C8.66 7.33 9.32 7.66 10 8 C9.67 9.98 9.34 11.96 9 14 C9.66 14 10.32 14 11 14 C11.33 15.98 11.66 17.96 12 20 C11.01 20 10.02 20 9 20 C7.48987869 17.23456804 5.99369852 14.46183193 4.5 11.6875 C4.07074219 10.90181641 3.64148438 10.11613281 3.19921875 9.30664062 C2.79316406 8.54931641 2.38710937 7.79199219 1.96875 7.01171875 C1.59169922 6.31522217 1.21464844 5.61872559 0.82617188 4.90112305 C0 3 0 3 0 0 Z " fill="#A82E34" transform="translate(68,292)"/>
<path d="M0 0 C0.33 0 0.66 0 1 0 C1.25394531 1.03898438 1.50789062 2.07796875 1.76953125 3.1484375 C3.65986225 10.82767688 5.606916 18.45815952 8 26 C6.02 26.99 4.04 27.98 2 29 C1.61936779 26.6739143 1.28730055 24.33944736 1 22 C1.33 21.67 1.66 21.34 2 21 C1.55206891 16.34934387 1.55206891 16.34934387 0 12 C-0.07065617 9.95944995 -0.08421976 7.91665743 -0.0625 5.875 C-0.05347656 4.77929688 -0.04445312 3.68359375 -0.03515625 2.5546875 C-0.02355469 1.71164063 -0.01195312 0.86859375 0 0 Z " fill="#5D1110" transform="translate(141,232)"/>
<path d="M0 0 C0 3.66979244 -0.94870315 4.99631532 -3 8 C-3.61875 8.598125 -4.2375 9.19625 -4.875 9.8125 C-10.87862756 15.99270484 -14.28502562 24.340259 -18 32 C-18.66 32 -19.32 32 -20 32 C-20.33 32.99 -20.66 33.98 -21 35 C-21.33 34.34 -21.66 33.68 -22 33 C-21.328125 31.23046875 -21.328125 31.23046875 -20.25 29.1875 C-19.87488281 28.47207031 -19.49976562 27.75664062 -19.11328125 27.01953125 C-17.80247895 24.64168989 -16.40584733 22.32270428 -15 20 C-14.484375 18.9275 -13.96875 17.855 -13.4375 16.75 C-12 14 -12 14 -10 13 C-8.96210419 11.35666496 -7.96432076 9.68756133 -7 8 C-6.34 7.01 -5.68 6.02 -5 5 C-4.34 5 -3.68 5 -3 5 C-2.690625 4.360625 -2.38125 3.72125 -2.0625 3.0625 C-1 1 -1 1 0 0 Z " fill="#B3181C" transform="translate(95,184)"/>
<path d="M0 0 C0.66 0 1.32 0 2 0 C2.75 2.0625 2.75 2.0625 3 5 C2.03684502 6.76578412 1.06567445 8.53055172 -0.015625 10.2265625 C-1.39282106 12.70770143 -1.6114943 15.21570913 -2 18 C-4 20 -4 20 -6 21 C-6.33 21.99 -6.66 22.98 -7 24 C-7.40762948 17.53616112 -6.2807412 13.29768435 -3.5 7.5 C-3.16613281 6.77296875 -2.83226563 6.0459375 -2.48828125 5.296875 C-1.67228705 3.52500187 -0.83802408 1.76156083 0 0 Z " fill="#CC3036" transform="translate(71,128)"/>
<path d="M0 0 C1.25425781 0.00902344 2.50851563 0.01804687 3.80078125 0.02734375 C4.75339844 0.03894531 5.70601562 0.05054687 6.6875 0.0625 C6.3575 0.7225 6.0275 1.3825 5.6875 2.0625 C3.796875 2.4765625 3.796875 2.4765625 1.4375 2.6875 C0.62925781 2.76097656 -0.17898437 2.83445312 -1.01171875 2.91015625 C-3.45245394 3.0717669 -5.867174 3.14138148 -8.3125 3.0625 C-8.3125 3.7225 -8.3125 4.3825 -8.3125 5.0625 C-16.5625 5.0625 -24.8125 5.0625 -33.3125 5.0625 C-29.07855841 2.9455292 -25.49032592 2.45325575 -20.875 2 C-19.37610637 1.84432092 -17.87740126 1.68681419 -16.37890625 1.52734375 C-15.31313354 1.41483276 -15.31313354 1.41483276 -14.22583008 1.30004883 C-12.1904766 1.07593671 -12.1904766 1.07593671 -9.734375 0.5078125 C-6.46705637 -0.09295254 -3.31851729 -0.03101418 0 0 Z " fill="#E75D58" transform="translate(227.3125,24.9375)"/>
<path d="M0 0 C0.66 0 1.32 0 2 0 C2.33 1.65 2.66 3.3 3 5 C3.66 5 4.32 5 5 5 C5 6.65 5 8.3 5 10 C6.32 10.66 7.64 11.32 9 12 C9 13.32 9 14.64 9 16 C9.66 16.33 10.32 16.66 11 17 C11 18.65 11 20.3 11 22 C11.66 22 12.32 22 13 22 C13.33 23.65 13.66 25.3 14 27 C10.04592923 23.4066276 7.58955129 19.85494307 5.3125 15 C5.01794922 14.39671875 4.72339844 13.7934375 4.41992188 13.171875 C0 4.03405899 0 4.03405899 0 0 Z " fill="#7B0402" transform="translate(157,317)"/>
<path d="M0 0 C3.4375 1.4375 3.4375 1.4375 6 3 C6.33 3.99 6.66 4.98 7 6 C5.125 6.625 5.125 6.625 3 7 C2.34 6.34 1.68 5.68 1 5 C-1.33247761 4.66073053 -3.66585471 4.32759934 -6 4 C-6.99 3.34 -7.98 2.68 -9 2 C-9.99 2.66 -10.98 3.32 -12 4 C-12.33 3.01 -12.66 2.02 -13 1 C-8.46936689 -2.68113941 -5.15477769 -1.90283786 0 0 Z " fill="#802222" transform="translate(199,308)"/>
<path d="M0 0 C2 1 2 1 2.5625 2.6796875 C2.706875 3.40414062 2.85125 4.12859375 3 4.875 C3.165 5.67679688 3.33 6.47859375 3.5 7.3046875 C3.8520312 9.20235569 4.18350465 11.10389516 4.5 13.0078125 C4.7475 14.48894531 4.7475 14.48894531 5 16 C5.2165625 17.3921875 5.2165625 17.3921875 5.4375 18.8125 C5.7159375 19.8953125 5.7159375 19.8953125 6 21 C6.66 21.33 7.32 21.66 8 22 C8 26.62 8 31.24 8 36 C5.63912215 33.63912215 5.44894316 32.3822108 4.74609375 29.16015625 C4.53146484 28.17853516 4.31683594 27.19691406 4.09570312 26.18554688 C3.87849609 25.15494141 3.66128906 24.12433594 3.4375 23.0625 C3.21642578 22.06669922 2.99535156 21.07089844 2.76757812 20.04492188 C1.33549857 13.37774788 0.45664951 6.80282087 0 0 Z " fill="#9E393B" transform="translate(52,235)"/>
<path d="M0 0 C0.33 0.66 0.66 1.32 1 2 C-2.61328125 6.6875 -2.61328125 6.6875 -4 8 C-4.99 8 -5.98 8 -7 8 C-7.09925781 8.57878906 -7.19851562 9.15757812 -7.30078125 9.75390625 C-9.27442685 16.09382927 -15.92061755 21.03560394 -21 25 C-21 22 -21 22 -20 20 C-19.34 20 -18.68 20 -18 20 C-17.73832031 19.41089844 -17.47664063 18.82179687 -17.20703125 18.21484375 C-15.9357725 15.88214566 -14.59769469 14.39645632 -12.6875 12.5625 C-11.759375 11.6653125 -11.759375 11.6653125 -10.8125 10.75 C-10.214375 10.1725 -9.61625 9.595 -9 9 C-8.06119817 8.02208143 -7.12351459 7.04308671 -6.1875 6.0625 C-4 4 -4 4 -2 4 C-1.34 2.68 -0.68 1.36 0 0 Z " fill="#98080A" transform="translate(116,164)"/>
<path d="M0 0 C4.12306307 1.58504547 6.63930446 4.58934576 9.5 7.8125 C10.20962891 8.59463867 10.20962891 8.59463867 10.93359375 9.39257812 C13.74055175 12.50666865 16.41280978 15.69889172 19 19 C16.36 19 13.72 19 11 19 C11 16.69 11 14.38 11 12 C9.68 12 8.36 12 7 12 C7 11.01 7 10.02 7 9 C6.01 8.67 5.02 8.34 4 8 C4 6.68 4 5.36 4 4 C2.68 3.67 1.36 3.34 0 3 C0 2.01 0 1.02 0 0 Z " fill="#BB3F44" transform="translate(325,328)"/>
<path d="M0 0 C0.33 0.66 0.66 1.32 1 2 C-0.95585325 3.00484204 -2.91476237 4.00373805 -4.875 5 C-5.96554688 5.556875 -7.05609375 6.11375 -8.1796875 6.6875 C-11 8 -11 8 -13 8 C-13 8.66 -13 9.32 -13 10 C-14.28913487 10.67154933 -15.58140204 11.33708859 -16.875 12 C-17.59429687 12.37125 -18.31359375 12.7425 -19.0546875 13.125 C-21 14 -21 14 -23 14 C-22.6875 12.0625 -22.6875 12.0625 -22 10 C-21.01 9.67 -20.02 9.34 -19 9 C-19 8.34 -19 7.68 -19 7 C-18.030625 6.87625 -17.06125 6.7525 -16.0625 6.625 C-15.051875 6.41875 -14.04125 6.2125 -13 6 C-12.67 5.34 -12.34 4.68 -12 4 C-10.35 4 -8.7 4 -7 4 C-7 3.34 -7 2.68 -7 2 C-4.69 1.34 -2.38 0.68 0 0 Z " fill="#DE2529" transform="translate(167,129)"/>
<path d="M0 0 C31.95046473 -0.30656096 31.95046473 -0.30656096 41 3 C42.203125 5.07421875 42.203125 5.07421875 43 7 C42.00540771 6.78065796 42.00540771 6.78065796 40.99072266 6.55688477 C27.29121397 3.57394631 14.03800782 1.19721339 0 1 C0 0.67 0 0.34 0 0 Z " fill="#DF706E" transform="translate(237,110)"/>
<path d="M0 0 C2.31 0.33 4.62 0.66 7 1 C7 2.32 7 3.64 7 5 C7.99 4.67 8.98 4.34 10 4 C10.33 5.65 10.66 7.3 11 9 C11.721875 9.103125 12.44375 9.20625 13.1875 9.3125 C16.27793421 10.06793947 18.41743841 11.15531315 21 13 C21 13.66 21 14.32 21 15 C17.1509323 14.47985572 15.64257753 13.74828063 13 11 C11.63875 10.3503125 11.63875 10.3503125 10.25 9.6875 C6.35664983 7.6659528 3.014862 5.20217591 0 2 C0 1.34 0 0.68 0 0 Z " fill="#960D0B" transform="translate(202,384)"/>
<path d="M0 0 C-7.83550431 4.23117233 -16.99501789 9 -26 9 C-26 8.34 -26 7.68 -26 7 C-25.19949219 6.74476563 -25.19949219 6.74476563 -24.3828125 6.484375 C-19.22207959 4.80579751 -14.1859745 2.92378003 -9.1640625 0.8671875 C-5.57461994 -0.57118118 -3.7006454 -1.14847616 0 0 Z " fill="#B52F37" transform="translate(323,390)"/>
<path d="M0 0 C0.66 0.33 1.32 0.66 2 1 C1.45061768 1.54414551 0.90123535 2.08829102 0.33520508 2.64892578 C-2.17504235 5.13826551 -4.68129484 7.63159093 -7.1875 10.125 C-8.05181641 10.9809375 -8.91613281 11.836875 -9.80664062 12.71875 C-14.09712695 16.99279768 -18.23925301 21.25040235 -22 26 C-22.33 25.34 -22.66 24.68 -23 24 C-22.51789063 23.45730469 -22.03578125 22.91460937 -21.5390625 22.35546875 C-20.90742187 21.64003906 -20.27578125 20.92460937 -19.625 20.1875 C-18.68527344 19.12595703 -18.68527344 19.12595703 -17.7265625 18.04296875 C-15.859401 15.91196181 -15.859401 15.91196181 -14 13 C-13.34 13 -12.68 13 -12 13 C-12 12.34 -12 11.68 -12 11 C-8.3145494 6.97950843 -4.17443363 3.50074982 0 0 Z " fill="#9F1214" transform="translate(95,227)"/>
<path d="M0 0 C0.75 1.6875 0.75 1.6875 1 4 C-0.80447147 6.61337248 -2.7582981 8.7582981 -5 11 C-5.33 10.67 -5.66 10.34 -6 10 C-6.66 11.98 -7.32 13.96 -8 16 C-8.66 15.67 -9.32 15.34 -10 15 C-9.32829194 11.1936543 -8.27253436 7.64793184 -7 4 C-6.01 4 -5.02 4 -4 4 C-3.67 3.01 -3.34 2.02 -3 1 C-2.01 0.67 -1.02 0.34 0 0 Z " fill="#DE1F22" transform="translate(88,108)"/>
<path d="M0 0 C-3.89266194 2.38114959 -8.07403106 2.88859091 -12.5 3.625 C-13.25925781 3.7590625 -14.01851563 3.893125 -14.80078125 4.03125 C-18.30807176 4.63320179 -21.41258421 5 -25 5 C-25 4.01 -25 3.02 -25 2 C-16.6030674 0.62707087 -8.51372785 -0.31274919 0 0 Z " fill="#A13C40" transform="translate(294,400)"/>
<path d="M0 0 C0.99 0.33 1.98 0.66 3 1 C3.3384185 4.6870516 3.66981608 8.37470259 4 12.0625 C4.09539062 13.10083984 4.19078125 14.13917969 4.2890625 15.20898438 C4.75899954 20.49577606 5.12045745 25.69234381 5 31 C4.67 31 4.34 31 4 31 C3.49265716 28.6263603 2.99397614 26.25142575 2.5 23.875 C2.35691406 23.20984375 2.21382812 22.5446875 2.06640625 21.859375 C1.23736375 17.83259714 0.85721177 14.10516159 1 10 C1 9.01 1 8.02 1 7 C1.3062434 5.66018514 1.63451555 4.32488113 2 3 C1.34 3 0.68 3 0 3 C0 2.01 0 1.02 0 0 Z " fill="#AD1F1F" transform="translate(137,237)"/>
<path d="M0 0 C0 3 0 3 -2.25 5.375 C-3.1575 6.24125 -4.065 7.1075 -5 8 C-6.35555293 9.64864545 -7.69631653 11.31003995 -9 13 C-8.34 13 -7.68 13 -7 13 C-7 12.34 -7 11.68 -7 11 C-6.34 11 -5.68 11 -5 11 C-5.625 12.875 -5.625 12.875 -7 15 C-9.7479571 16.14498213 -12.010197 17 -15 17 C-13.67879172 14.06769807 -12.25361803 12.01335101 -9.9609375 9.765625 C-9.38085938 9.19199219 -8.80078125 8.61835937 -8.203125 8.02734375 C-7.59984375 7.44082031 -6.9965625 6.85429688 -6.375 6.25 C-5.76398438 5.64800781 -5.15296875 5.04601562 -4.5234375 4.42578125 C-3.02011376 2.94594695 -1.51065144 1.47235324 0 0 Z " fill="#D22F36" transform="translate(111,76)"/>
<path d="M0 0 C0 0.66 0 1.32 0 2 C-1.98 2.66 -3.96 3.32 -6 4 C-6 4.66 -6 5.32 -6 6 C-10.87288478 9.5439162 -16.15549417 12.46197215 -22 14 C-21.34 12.68 -20.68 11.36 -20 10 C-18.35 10 -16.7 10 -15 10 C-15 9.34 -15 8.68 -15 8 C-14.34 8 -13.68 8 -13 8 C-13 7.34 -13 6.68 -13 6 C-10.91796875 4.4921875 -10.91796875 4.4921875 -8.1875 2.875 C-7.29417969 2.33617187 -6.40085938 1.79734375 -5.48046875 1.2421875 C-3 0 -3 0 0 0 Z " fill="#D72025" transform="translate(144,143)"/>
<path d="M0 0 C7.59013055 2.84122534 14.33678639 7.44095911 21 12 C17.79937313 13.60031344 15.27728194 12.03173691 12 11 C11.67 9.68 11.34 8.36 11 7 C9.9171875 6.814375 9.9171875 6.814375 8.8125 6.625 C5.97262016 5.99391559 3.57636582 5.35974863 1 4 C0.1875 1.875 0.1875 1.875 0 0 Z " fill="#E78485" transform="translate(336,46)"/>
<path d="M0 0 C2 1.375 2 1.375 4 3 C4 3.66 4 4.32 4 5 C3.34 5 2.68 5 2 5 C2.33 6.98 2.66 8.96 3 11 C3.66 11 4.32 11 5 11 C5.144375 11.928125 5.28875 12.85625 5.4375 13.8125 C5.92100111 17.00725111 5.92100111 17.00725111 7 20 C7.03954234 22.33299825 7.04401732 24.66708189 7 27 C4.38320165 23.07480248 3.54552235 19.15737144 2.375 14.625 C2.14554688 13.77421875 1.91609375 12.9234375 1.6796875 12.046875 C0.61123983 7.96387855 -0.33308333 4.25996046 0 0 Z " fill="#730402" transform="translate(145,277)"/>
<path d="M0 0 C0.99 0 1.98 0 3 0 C2.34 2.31 1.68 4.62 1 7 C0.67 7 0.34 7 0 7 C0 4.69 0 2.38 0 0 Z M-1 7 C0.14109582 10.42328747 -0.15266449 11.06602175 -1.375 14.3125 C-2.64759778 17.86880066 -3.5176786 21.2378931 -4 25 C-4.33 25 -4.66 25 -5 25 C-6.43533123 14.86435331 -6.43533123 14.86435331 -5 11 C-2.9375 8.6875 -2.9375 8.6875 -1 7 Z " fill="#B2292A" transform="translate(61,158)"/>
<path d="M0 0 C-0.33 1.32 -0.66 2.64 -1 4 C0.65 3.34 2.3 2.68 4 2 C4.33 2.66 4.66 3.32 5 4 C-1.03501806 5.38302497 -4.37281504 4.61955162 -10 2 C-10.33 1.34 -10.66 0.68 -11 0 C-6.53464227 -1.86921951 -4.33629181 -2.2956839 0 0 Z " fill="#E23030" transform="translate(155,378)"/>
<path d="M0 0 C4.03520597 1.58962659 8.01811282 3.28232318 12 5 C12 5.66 12 6.32 12 7 C10.39592672 7.02708567 8.7917215 7.04643483 7.1875 7.0625 C5.84751953 7.07990234 5.84751953 7.07990234 4.48046875 7.09765625 C2 7 2 7 -1 6 C-1 5.01 -1 4.02 -1 3 C-0.34 3 0.32 3 1 3 C0.67 2.01 0.34 1.02 0 0 Z " fill="#DD3335" transform="translate(216,397)"/>
<path d="M0 0 C2.475 0.495 2.475 0.495 5 1 C5.33 1.99 5.66 2.98 6 4 C6.66 4.33 7.32 4.66 8 5 C7.360625 5.433125 6.72125 5.86625 6.0625 6.3125 C3.73253997 7.91239177 3.73253997 7.91239177 3 11 C2.01 11.33 1.02 11.66 0 12 C0 8 0 4 0 0 Z " fill="#F16261" transform="translate(352,58)"/>
<path d="M0 0 C0 0.66 0 1.32 0 2 C-6.48343811 4.63096039 -12.02330843 5.39325819 -19 5 C-16.19732709 3.13155139 -13.75768886 2.00120523 -10.625 0.8125 C-9.68914062 0.44769531 -8.75328125 0.08289063 -7.7890625 -0.29296875 C-4.76045606 -1.06072472 -2.97367573 -0.84884925 0 0 Z " fill="#AE3B3F" transform="translate(290,310)"/>
<path d="M0 0 C1.65 0.33 3.3 0.66 5 1 C3.7251791 3.84383123 2.54862922 6.13754018 0 8 C-3.37080456 7.78252874 -5.44609064 6.09785412 -8 4 C-5.36 4 -2.72 4 0 4 C0 2.68 0 1.36 0 0 Z " fill="#DE6365" transform="translate(302,119)"/>
<path d="M0 0 C2.475 0.495 2.475 0.495 5 1 C5 1.66 5 2.32 5 3 C6.98 3 8.96 3 11 3 C12.32 5.64 13.64 8.28 15 11 C10.92584833 9.59790456 8.01720177 7.65552322 4.6875 4.9375 C3.80449219 4.22464844 2.92148438 3.51179688 2.01171875 2.77734375 C1.34785156 2.19082031 0.68398437 1.60429687 0 1 C0 0.67 0 0.34 0 0 Z " fill="#CF474B" transform="translate(124,364)"/>
<path d="M0 0 C0.66 0 1.32 0 2 0 C5.42410997 6.7597743 7.62625268 12.40047112 8 20 C5.25942675 16.72899322 3.81941925 13.41522379 2.3125 9.4375 C1.87550781 8.30183594 1.43851563 7.16617187 0.98828125 5.99609375 C0 3 0 3 0 0 Z " fill="#9F3236" transform="translate(60,272)"/>
<path d="M0 0 C-0.5625 1.875 -0.5625 1.875 -2 4 C-4.31029085 4.74259349 -6.645752 5.411438 -9 6 C-9.66 6.66 -10.32 7.32 -11 8 C-11 7.34 -11 6.68 -11 6 C-11.66 5.67 -12.32 5.34 -13 5 C-9.5464929 0.77904688 -5.26785261 0 0 0 Z " fill="#E35753" transform="translate(194,30)"/>
<path d="M0 0 C7.05732484 8.82165605 7.05732484 8.82165605 6.9375 13.375 C6 15 6 15 3 16 C2.49411853 14.08487728 1.99551609 12.16783078 1.5 10.25 C1.2215625 9.18265625 0.943125 8.1153125 0.65625 7.015625 C0 4 0 4 0 0 Z " fill="#621413" transform="translate(150,260)"/>
<path d="M0 0 C1 2 1 2 -0.109375 5.58984375 C-0.64813615 7.04209844 -1.1954016 8.4912193 -1.75 9.9375 C-2.01554687 10.66646484 -2.28109375 11.39542969 -2.5546875 12.14648438 C-2.82023437 12.84966797 -3.08578125 13.55285156 -3.359375 14.27734375 C-3.60139648 14.91921631 -3.84341797 15.56108887 -4.09277344 16.22241211 C-5.11483169 18.22499718 -6.34287751 19.49718329 -8 21 C-8.125 18.625 -8.125 18.625 -8 16 C-7.34 15.34 -6.68 14.68 -6 14 C-5.46765195 12.58133425 -4.99454594 11.13985782 -4.5625 9.6875 C-3.43465576 6.11982944 -2.11325567 3.11956789 0 0 Z " fill="#9D1416" transform="translate(72,219)"/>
<path d="M0 0 C0.99 0.66 1.98 1.32 3 2 C2.67 2.99 2.34 3.98 2 5 C1.29875 4.773125 0.5975 4.54625 -0.125 4.3125 C-3.88648985 3.90364241 -5.72898454 5.22227421 -9 7 C-9.99 7 -10.98 7 -12 7 C-11 4 -11 4 -8.6015625 2.76171875 C-7.61929688 2.40722656 -6.63703125 2.05273438 -5.625 1.6875 C-4.64789063 1.32011719 -3.67078125 0.95273438 -2.6640625 0.57421875 C-1.78492188 0.38472656 -0.90578125 0.19523438 0 0 Z " fill="#790303" transform="translate(173,129)"/>
<path d="M0 0 C1.22589844 0.15275391 1.22589844 0.15275391 2.4765625 0.30859375 C3.41628906 0.43427734 3.41628906 0.43427734 4.375 0.5625 C0.74964179 3.73468843 -3.13650278 4.99152597 -7.625 6.5625 C-7.955 5.9025 -8.285 5.2425 -8.625 4.5625 C-6.72500182 -0.2605723 -4.92922136 -0.63375703 0 0 Z " fill="#E53535" transform="translate(178.625,122.4375)"/>
<path d="M0 0 C0.76183594 0.19335938 1.52367187 0.38671875 2.30859375 0.5859375 C8.52125641 2.1526764 14.73813068 3.64326165 21 5 C21 5.33 21 5.66 21 6 C15.31150252 7.49697302 10.58190932 6.3348044 5 5 C5 4.34 5 3.68 5 3 C3.68 3 2.36 3 1 3 C0.67 2.01 0.34 1.02 0 0 Z " fill="#94474A" transform="translate(205,311)"/>
<path d="M0 0 C1.175625 0.5259375 1.175625 0.5259375 2.375 1.0625 C3.24125 1.371875 4.1075 1.68125 5 2 C5.66 1.67 6.32 1.34 7 1 C7 2.32 7 3.64 7 5 C5.39658445 5.33692785 3.79223445 5.66941093 2.1875 6 C1.29417969 6.185625 0.40085937 6.37125 -0.51953125 6.5625 C-3 7 -3 7 -6 7 C-6 6.34 -6 5.68 -6 5 C-4.68 4.67 -3.36 4.34 -2 4 C-2 3.34 -2 2.68 -2 2 C-1.34 2 -0.68 2 0 2 C0 1.34 0 0.68 0 0 Z " fill="#C52123" transform="translate(319,384)"/>
<path d="M0 0 C7.57142857 4.14285714 7.57142857 4.14285714 10 7 C7.525 8.485 7.525 8.485 5 10 C3.33333333 8.33333333 1.66666667 6.66666667 0 5 C0.66 4.01 1.32 3.02 2 2 C1.34 2 0.68 2 0 2 C0 1.34 0 0.68 0 0 Z " fill="#7B2121" transform="translate(180,297)"/>
<path d="M0 0 C1.32 0.66 2.64 1.32 4 2 C4 6 4 6 2.25 8.140625 C1.5075 8.83671875 0.765 9.5328125 0 10.25 C-0.7425 10.95640625 -1.485 11.6628125 -2.25 12.390625 C-2.8275 12.92171875 -3.405 13.4528125 -4 14 C-4.33 13.01 -4.66 12.02 -5 11 C-4.01 10.67 -3.02 10.34 -2 10 C-1.39938767 8.09821215 -1.39938767 8.09821215 -1 6 C-0.34 5.01 0.32 4.02 1 3 C0.67 2.01 0.34 1.02 0 0 Z " fill="#E47A7E" transform="translate(357,59)"/>
<path d="M0 0 C3.65882521 3.3621637 6.14420341 6.36050852 8 11 C7.67 11.66 7.34 12.32 7 13 C4 11 4 11 3 8 C2.01 8.495 2.01 8.495 1 9 C0.67 6.03 0.34 3.06 0 0 Z " fill="#DE322E" transform="translate(175,355)"/>
<path d="M0 0 C0 5.94 0 11.88 0 18 C-0.66 17.67 -1.32 17.34 -2 17 C-2 12.71 -2 8.42 -2 4 C-2.99 4 -3.98 4 -5 4 C-6.33981486 3.6937566 -7.67511887 3.36548445 -9 3 C-3.375 0 -3.375 0 0 0 Z " fill="#A61919" transform="translate(139,202)"/>
<path d="M0 0 C1.32 0.33 2.64 0.66 4 1 C0.37 4.63 -3.26 8.26 -7 12 C-7.99 11.34 -8.98 10.68 -10 10 C-8.1875 8 -8.1875 8 -6 6 C-5.01 6 -4.02 6 -3 6 C-2.67 4.68 -2.34 3.36 -2 2 C-1.34 2 -0.68 2 0 2 C0 1.34 0 0.68 0 0 Z " fill="#6D171A" transform="translate(173,134)"/>
<path d="M0 0 C0.33 0.66 0.66 1.32 1 2 C-0.32 2 -1.64 2 -3 2 C-3.33 2.99 -3.66 3.98 -4 5 C-6.97 5 -9.94 5 -13 5 C-4.67741935 -1.93548387 -4.67741935 -1.93548387 0 0 Z " fill="#AF383F" transform="translate(303,303)"/>
<path d="M0 0 C0.33 0.66 0.66 1.32 1 2 C0.690625 2.598125 0.38125 3.19625 0.0625 3.8125 C-1.19653266 5.9790856 -1.19653266 5.9790856 -0.9375 8.5625 C-1 11 -1 11 -2.3125 12.8125 C-4 14 -4 14 -7 14 C-5.53967505 8.68972746 -3.01679014 4.53669968 0 0 Z " fill="#C72F37" transform="translate(80,113)"/>
<path d="M0 0 C6.75 5.625 6.75 5.625 9 9 C6.36 9 3.72 9 1 9 C0.67 6.03 0.34 3.06 0 0 Z " fill="#CA4446" transform="translate(335,338)"/>
<path d="M0 0 C0.66 0 1.32 0 2 0 C2.84069415 1.60032137 3.67231505 3.20541171 4.5 4.8125 C4.9640625 5.70582031 5.428125 6.59914063 5.90625 7.51953125 C7 10 7 10 7 13 C6.01 12.67 5.02 12.34 4 12 C4 11.01 4 10.02 4 9 C3.34 9 2.68 9 2 9 C1.34 6.03 0.68 3.06 0 0 Z " fill="#CF2B2B" transform="translate(153,315)"/>
<path d="M0 0 C0.99 0.33 1.98 0.66 3 1 C2.67 2.98 2.34 4.96 2 7 C2.66 7 3.32 7 4 7 C4.33 8.98 4.66 10.96 5 13 C4.01 13 3.02 13 2 13 C0.54815522 8.46298506 -0.23509196 4.81938524 0 0 Z " fill="#BD1922" transform="translate(75,299)"/>
<path d="M0 0 C4.13621084 3.3810038 7.81316569 6.66590534 11 11 C10.01 11.495 10.01 11.495 9 12 C8.34 11.01 7.68 10.02 7 9 C4.43717258 8.27034634 4.43717258 8.27034634 2 8 C1.34 5.36 0.68 2.72 0 0 Z " fill="#B8393E" transform="translate(313,315)"/>
<path d="M0 0 C0 0.66 0 1.32 0 2 C0.99 2.33 1.98 2.66 3 3 C2.01 3.99 1.02 4.98 0 6 C-0.99 5.67 -1.98 5.34 -3 5 C-3.33 4.01 -3.66 3.02 -4 2 C-5.98 2.33 -7.96 2.66 -10 3 C-9 1 -9 1 -6.6875 -0.1875 C-3.88010429 -1.03624754 -2.698065 -0.99928333 0 0 Z " fill="#820E0E" transform="translate(178,128)"/>
<path d="M0 0 C1.99110401 0.38290462 3.99100513 0.72604615 6 1 C6 1.33 6 1.66 6 2 C-1.03482474 2.23668569 -7.1834265 1.7879537 -14 0 C-14 -0.33 -14 -0.66 -14 -1 C-12.41870971 -1.22331199 -10.83478911 -1.42804644 -9.25 -1.625 C-8.36828125 -1.74101562 -7.4865625 -1.85703125 -6.578125 -1.9765625 C-3.72107029 -2.00253572 -2.44716546 -1.38672709 0 0 Z " fill="#DA504D" transform="translate(206,400)"/>
<path d="M0 0 C1.67542976 0.28604898 3.34385343 0.61781233 5 1 C4.67 2.65 4.34 4.3 4 6 C2.02 6 0.04 6 -2 6 C-1.125 1.125 -1.125 1.125 0 0 Z " fill="#D62629" transform="translate(339,346)"/>
<path d="M0 0 C2.475 0.495 2.475 0.495 5 1 C5.33 1.99 5.66 2.98 6 4 C5.67 4.66 5.34 5.32 5 6 C5.66 6 6.32 6 7 6 C7.66 7.32 8.32 8.64 9 10 C8.01 10 7.02 10 6 10 C4.39453125 8.3203125 4.39453125 8.3203125 2.8125 6.125 C2.01779297 5.04605469 2.01779297 5.04605469 1.20703125 3.9453125 C0 2 0 2 0 0 Z " fill="#B5333A" transform="translate(84,321)"/>
<path d="M0 0 C1.32 0 2.64 0 4 0 C4 0.66 4 1.32 4 2 C4.99 2 5.98 2 7 2 C7.66 3.65 8.32 5.3 9 7 C6.69 7 4.38 7 2 7 C2.04125 6.21625 2.0825 5.4325 2.125 4.625 C2.28728734 1.83883881 2.28728734 1.83883881 0 0 Z M-2 1 C0 2 0 2 0 2 Z " fill="#C41B23" transform="translate(306,313)"/>
<path d="M0 0 C0.556875 0.33 1.11375 0.66 1.6875 1 C4.30284522 2.1309601 6.1806646 2.15662974 9 2 C9.33 2.66 9.66 3.32 10 4 C9.0625 6.125 9.0625 6.125 8 8 C6 8 6 8 3.4375 5.6875 C1 3 1 3 0 0 Z " fill="#7E0709" transform="translate(179,358)"/>
<path d="M0 0 C1.13199353 0.9080162 2.25532363 1.82683826 3.375 2.75 C4.00148438 3.26046875 4.62796875 3.7709375 5.2734375 4.296875 C7.08312318 6.08199481 8.00117455 7.67949644 9 10 C8.01 10 7.02 10 6 10 C6 9.34 6 8.68 6 8 C4.35 7.67 2.7 7.34 1 7 C1 6.01 1 5.02 1 4 C0.6937566 2.66018514 0.36548445 1.32488113 0 0 Z " fill="#BA3E44" transform="translate(304,305)"/>
<path d="M0 0 C0.66 0 1.32 0 2 0 C2 0.99 2 1.98 2 3 C3.32 3 4.64 3 6 3 C5.67 4.32 5.34 5.64 5 7 C2.69 7 0.38 7 -2 7 C-1.34 4.69 -0.68 2.38 0 0 Z " fill="#D72129" transform="translate(330,337)"/>
<path d="M0 0 C2.96175123 0.61277612 4.38058783 1.25372522 7 3 C7 3.66 7 4.32 7 5 C6.01 5.495 6.01 5.495 5 6 C5 7.65 5 9.3 5 11 C4.34 11 3.68 11 3 11 C2.896875 10.05125 2.79375 9.1025 2.6875 8.125 C2.31460705 4.70892499 2.31460705 4.70892499 -1 3 C-0.67 2.01 -0.34 1.02 0 0 Z " fill="#C41C21" transform="translate(317,323)"/>
<path d="M0 0 C0 3.19610552 -0.54671542 4.41717626 -2 7.1875 C-2.37125 7.90292969 -2.7425 8.61835938 -3.125 9.35546875 C-3.41375 9.89816406 -3.7025 10.44085938 -4 11 C-4.66 11 -5.32 11 -6 11 C-6.33 11.99 -6.66 12.98 -7 14 C-7.33 13.34 -7.66 12.68 -8 12 C-6.32465344 7.25147171 -3.83520308 3.28731693 0 0 Z " fill="#A61315" transform="translate(81,205)"/>
<path d="M0 0 C0 0.99 0 1.98 0 3 C-0.66 3 -1.32 3 -2 3 C-2.33 4.32 -2.66 5.64 -3 7 C-5.64 7.33 -8.28 7.66 -11 8 C-7.72291137 4.32966073 -4.28477792 2.30718811 0 0 Z " fill="#DB5255" transform="translate(145,50)"/>
<path d="M0 0 C3.3048381 2.2032254 3.56658911 2.82567601 4.6875 6.4375 C4.93886719 7.21996094 5.19023437 8.00242187 5.44921875 8.80859375 C6 11 6 11 6 14 C4.98576166 12.61447798 3.98912998 11.21605712 3 9.8125 C2.443125 9.03519531 1.88625 8.25789063 1.3125 7.45703125 C-0.151369 4.71663363 -0.26080213 3.05899163 0 0 Z " fill="#780504" transform="translate(172,344)"/>
<path d="M0 0 C0.66 0.66 1.32 1.32 2 2 C0.68 6.62 -0.64 11.24 -2 16 C-2.66 15.34 -3.32 14.68 -4 14 C-3.828125 11.7578125 -3.828125 11.7578125 -3.25 9.125 C-3.06953125 8.26132813 -2.8890625 7.39765625 -2.703125 6.5078125 C-2.03785668 4.13502215 -1.18243615 2.15443875 0 0 Z " fill="#782324" transform="translate(145,176)"/>
<path d="M0 0 C0.66 0 1.32 0 2 0 C2 1.32 2 2.64 2 4 C1.195625 4.12375 0.39125 4.2475 -0.4375 4.375 C-1.7059375 4.684375 -1.7059375 4.684375 -3 5 C-3.33 5.66 -3.66 6.32 -4 7 C-5.32 6.34 -6.64 5.68 -8 5 C-5.80084649 2.47097346 -4.26422245 1.65284449 -1 1 C-0.67 0.67 -0.34 0.34 0 0 Z " fill="#DD2626" transform="translate(343,374)"/>
<path d="M0 0 C0.99 0 1.98 0 3 0 C3.625 2.375 3.625 2.375 4 5 C2 7 2 7 0 8 C-0.33 8.99 -0.66 9.98 -1 11 C-1.125 3.375 -1.125 3.375 0 0 Z " fill="#C7262A" transform="translate(65,141)"/>
<path d="M0 0 C-0.33 1.32 -0.66 2.64 -1 4 C-3.66666667 4 -6.33333333 4 -9 4 C-8.67 3.01 -8.34 2.02 -8 1 C-2.59770115 -1.29885057 -2.59770115 -1.29885057 0 0 Z " fill="#E91D23" transform="translate(104,92)"/>
<path d="M0 0 C1.51400391 0.01740234 1.51400391 0.01740234 3.05859375 0.03515625 C4.07050781 0.04417969 5.08242188 0.05320312 6.125 0.0625 C7.29869141 0.07990234 7.29869141 0.07990234 8.49609375 0.09765625 C8.49609375 1.08765625 8.49609375 2.07765625 8.49609375 3.09765625 C6.87145533 3.15161103 5.24630834 3.1904282 3.62109375 3.22265625 C2.71617187 3.24585938 1.81125 3.2690625 0.87890625 3.29296875 C-1.50390625 3.09765625 -1.50390625 3.09765625 -3.50390625 1.09765625 C-2.50390625 0.09765625 -2.50390625 0.09765625 0 0 Z " fill="#E76D64" transform="translate(263.50390625,24.90234375)"/>
<path d="M0 0 C0.33 0 0.66 0 1 0 C1.99 4.95 2.98 9.9 4 15 C3.01 14.67 2.02 14.34 1 14 C-0.38226016 11.23547967 -0.09525387 8.9538637 -0.0625 5.875 C-0.05347656 4.77929688 -0.04445312 3.68359375 -0.03515625 2.5546875 C-0.02355469 1.71164063 -0.01195312 0.86859375 0 0 Z " fill="#6F2B2A" transform="translate(141,232)"/>
<path d="M0 0 C0.556875 0.226875 1.11375 0.45375 1.6875 0.6875 C1.6875 1.3475 1.6875 2.0075 1.6875 2.6875 C-2.0625 4.6875 -2.0625 4.6875 -4.3125 4.6875 C-5.3025 5.1825 -5.3025 5.1825 -6.3125 5.6875 C-6.6425 4.6975 -6.9725 3.7075 -7.3125 2.6875 C-2.88173077 -0.38942308 -2.88173077 -0.38942308 0 0 Z " fill="#780C0D" transform="translate(193.3125,306.3125)"/>
<path d="M0 0 C0.66 0.33 1.32 0.66 2 1 C0.3790787 2.17232685 -1.24686833 3.3377077 -2.875 4.5 C-3.77992187 5.1496875 -4.68484375 5.799375 -5.6171875 6.46875 C-8 8 -8 8 -10 8 C-10 7.34 -10 6.68 -10 6 C-9.34 6 -8.68 6 -8 6 C-8 5.34 -8 4.68 -8 4 C-6.71349294 3.30289269 -5.42059335 2.61757124 -4.125 1.9375 C-3.40570313 1.55464844 -2.68640625 1.17179688 -1.9453125 0.77734375 C-1.30335937 0.52082031 -0.66140625 0.26429688 0 0 Z " fill="#981113" transform="translate(118,211)"/>
<path d="M0 0 C-7.0547046 4.07877462 -7.0547046 4.07877462 -11 3.75 C-11.66 3.5025 -12.32 3.255 -13 3 C-8.61857449 0.07904966 -5.13850792 -1.56485878 0 0 Z " fill="#892020" transform="translate(208,117)"/>
<path d="M0 0 C0.66 0 1.32 0 2 0 C2.66 0.99 3.32 1.98 4 3 C4.99 3 5.98 3 7 3 C7 3.99 7 4.98 7 6 C4.69 5.67 2.38 5.34 0 5 C-0.33 4.01 -0.66 3.02 -1 2 C-0.67 1.34 -0.34 0.68 0 0 Z " fill="#AD1F24" transform="translate(290,394)"/>
<path d="M0 0 C1.32 0 2.64 0 4 0 C4 1.32 4 2.64 4 4 C4.99 4.33 5.98 4.66 7 5 C5.35 5.66 3.7 6.32 2 7 C0.5393715 4.35261084 0 3.10551666 0 0 Z " fill="#E41D22" transform="translate(344,353)"/>
<path d="M0 0 C0.82638376 2.89234315 1 4.88742431 1 8 C0.01 8 -0.98 8 -2 8 C-2.33 5.69 -2.66 3.38 -3 1 C-2.01 0.67 -1.02 0.34 0 0 Z " fill="#B3181E" transform="translate(70,284)"/>
<path d="M0 0 C0.99 0 1.98 0 3 0 C2.34 2.31 1.68 4.62 1 7 C0.67 7 0.34 7 0 7 C0 4.69 0 2.38 0 0 Z M-1 7 C0 10 0 10 -0.9375 12.1875 C-1.4634375 13.0846875 -1.4634375 13.0846875 -2 14 C-2.625 12.1875 -2.625 12.1875 -3 10 C-2.34 9.01 -1.68 8.02 -1 7 Z " fill="#C3181B" transform="translate(61,158)"/>
<path d="M0 0 C1.58437117 0.06047218 3.16767058 0.14938946 4.75 0.25 C5.63171875 0.29640625 6.5134375 0.3428125 7.421875 0.390625 C10.62961216 1.14881742 11.88827535 2.53303195 14 5 C12.22739369 4.54857225 10.4569632 4.08859477 8.6875 3.625 C7.20830078 3.24214844 7.20830078 3.24214844 5.69921875 2.8515625 C3 2 3 2 0 0 Z " fill="#D44D51" transform="translate(177,394)"/>
<path d="M0 0 C2.31 0.33 4.62 0.66 7 1 C7 2.32 7 3.64 7 5 C4.0625 4.1875 4.0625 4.1875 1 3 C0.67 2.01 0.34 1.02 0 0 Z " fill="#820B0B" transform="translate(202,384)"/>
<path d="M0 0 C1.61949011 2.57213134 2.04408751 3.67669159 1.625 6.75 C1.41875 7.4925 1.2125 8.235 1 9 C-0.32 7.68 -1.64 6.36 -3 5 C-2.67 4.01 -2.34 3.02 -2 2 C-1.34 2.33 -0.68 2.66 0 3 C0 2.01 0 1.02 0 0 Z " fill="#9C1416" transform="translate(60,251)"/>
<path d="M0 0 C1.65 0.33 3.3 0.66 5 1 C4.67 1.66 4.34 2.32 4 3 C3.34 3 2.68 3 2 3 C1.67 4.65 1.34 6.3 1 8 C0.34 8 -0.32 8 -1 8 C-1.125 2.25 -1.125 2.25 0 0 Z " fill="#F45954" transform="translate(329,88)"/>
<path d="M0 0 C3.3 0.33 6.6 0.66 10 1 C10 1.66 10 2.32 10 3 C2.25 3.125 2.25 3.125 0 2 C0 1.34 0 0.68 0 0 Z " fill="#841011" transform="translate(229,402)"/>
<path d="M0 0 C-1.24663331 0.50833591 -2.49749387 1.00631145 -3.75 1.5 C-4.44609375 1.7784375 -5.1421875 2.056875 -5.859375 2.34375 C-8 3 -8 3 -12 3 C-12 2.34 -12 1.68 -12 1 C-3.96428571 -1.27678571 -3.96428571 -1.27678571 0 0 Z " fill="#AC3F46" transform="translate(309,396)"/>
<path d="M0 0 C0.99 0 1.98 0 3 0 C3.33 2.97 3.66 5.94 4 9 C3.34 8.67 2.68 8.34 2 8 C2 6.68 2 5.36 2 4 C1.01 3.67 0.02 3.34 -1 3 C-0.67 2.01 -0.34 1.02 0 0 Z " fill="#CD1E23" transform="translate(326,332)"/>
<path d="M0 0 C-0.33 0.66 -0.66 1.32 -1 2 C-3.5625 2.625 -3.5625 2.625 -6 3 C-6 3.66 -6 4.32 -6 5 C-8.475 4.01 -8.475 4.01 -11 3 C-6.98213116 0.99106558 -4.56087444 -0.12002301 0 0 Z " fill="#AE1B1D" transform="translate(280,315)"/>
<path d="M0 0 C0 0.33 0 0.66 0 1 C-1.41623216 1.05447047 -2.83308191 1.09300508 -4.25 1.125 C-5.03890625 1.14820313 -5.8278125 1.17140625 -6.640625 1.1953125 C-9.20731941 0.9828378 -10.7916067 0.28654105 -13 -1 C-4.57142857 -2.42857143 -4.57142857 -2.42857143 0 0 Z " fill="#C75154" transform="translate(233,405)"/>
<path d="M0 0 C1.32 0.33 2.64 0.66 4 1 C4 1.66 4 2.32 4 3 C4.66 3.33 5.32 3.66 6 4 C5.01 4.33 4.02 4.66 3 5 C2.67 5.66 2.34 6.32 2 7 C1.34 7 0.68 7 0 7 C0 4.69 0 2.38 0 0 Z " fill="#6B0909" transform="translate(176,296)"/>
<path d="M0 0 C-0.33 1.32 -0.66 2.64 -1 4 C-2.32 4 -3.64 4 -5 4 C-5.33 3.01 -5.66 2.02 -6 1 C-4 0 -4 0 0 0 Z " fill="#680505" transform="translate(158,275)"/>
<path d="M0 0 C1.5625 1.5 1.5625 1.5 3 4 C2.96823234 6.77437543 2.50364148 9.25286467 2 12 C1.67 12 1.34 12 1 12 C0.01751476 7.9472484 -0.08159574 4.16138263 0 0 Z " fill="#8E1216" transform="translate(59,260)"/>
<path d="M0 0 C1 2 1 2 0.75 3.9375 C-0.09806644 6.26968272 -1.1450996 7.38704313 -3 9 C-3.99 8.67 -4.98 8.34 -6 8 C-4.02 5.36 -2.04 2.72 0 0 Z " fill="#C83E45" transform="translate(87,103)"/>
<path d="M0 0 C0 0.66 0 1.32 0 2 C-0.66 2 -1.32 2 -2 2 C-2.66 3.65 -3.32 5.3 -4 7 C-5.32 6.67 -6.64 6.34 -8 6 C-7.0479279 4.99403703 -6.08812654 3.99538437 -5.125 3 C-4.59132813 2.443125 -4.05765625 1.88625 -3.5078125 1.3125 C-2 0 -2 0 0 0 Z " fill="#D23E47" transform="translate(120,69)"/>
<path d="M0 0 C-1.24460783 0.67667998 -2.49596896 1.34094719 -3.75 2 C-4.44609375 2.37125 -5.1421875 2.7425 -5.859375 3.125 C-8 4 -8 4 -12 4 C-12 3.34 -12 2.68 -12 2 C-11.05125 1.690625 -10.1025 1.38125 -9.125 1.0625 C-3.1875 -0.95625 -3.1875 -0.95625 0 0 Z " fill="#F24445" transform="translate(170,42)"/>
<path d="M0 0 C0.99 0.66 1.98 1.32 3 2 C3.1875 4.625 3.1875 4.625 3 7 C0 6 0 6 -1.1875 3.9375 C-1.5896875 2.9784375 -1.5896875 2.9784375 -2 2 C-1.34 1.34 -0.68 0.68 0 0 Z " fill="#DB2026" transform="translate(101,336)"/>
<path d="M0 0 C0.99 0.33 1.98 0.66 3 1 C3.73046875 2.84765625 3.73046875 2.84765625 4.1875 5.0625 C4.34605469 5.79597656 4.50460938 6.52945312 4.66796875 7.28515625 C4.83232422 8.13400391 4.83232422 8.13400391 5 9 C4.01 8.67 3.02 8.34 2 8 C0.5522078 5.10441559 0 3.25811062 0 0 Z " fill="#710203" transform="translate(153,307)"/>
<path d="M0 0 C2.80045623 3.14591933 3.35261589 5.067064 3.1875 9.25 C3.16042969 10.14203125 3.13335937 11.0340625 3.10546875 11.953125 C3.07066406 12.62859375 3.03585938 13.3040625 3 14 C1.20724134 10.88089144 0.65709282 8.32317572 0.375 4.75 C0.30023438 3.85796875 0.22546875 2.9659375 0.1484375 2.046875 C0.09945312 1.37140625 0.05046875 0.6959375 0 0 Z " fill="#700201" transform="translate(142,262)"/>
<path d="M0 0 C2.32472205 2.85306797 3.7508258 5.54074837 5 9 C4.01 9.33 3.02 9.66 2 10 C0.68373308 6.38026598 0 3.90432869 0 0 Z " fill="#602121" transform="translate(150,260)"/>
<path d="M0 0 C-1.28913487 0.67154933 -2.58140204 1.33708859 -3.875 2 C-4.59429687 2.37125 -5.31359375 2.7425 -6.0546875 3.125 C-8 4 -8 4 -10 4 C-10 3.01 -10 2.02 -10 1 C-6.16112237 -0.48320272 -3.93795909 -1.22419163 0 0 Z " fill="#CF2528" transform="translate(154,139)"/>
<path d="M0 0 C2.97 0.33 5.94 0.66 9 1 C9.33 1.99 9.66 2.98 10 4 C6.44219804 3.39009109 3.3171411 2.4216319 0 1 C0 0.67 0 0.34 0 0 Z " fill="#D85051" transform="translate(167,390)"/>
<path d="M0 0 C2.01136276 2.55991624 3.62845496 5.04590299 5 8 C2.5625 7.3125 2.5625 7.3125 0 6 C-0.875 3.4375 -0.875 3.4375 -1 1 C-0.67 0.67 -0.34 0.34 0 0 Z " fill="#D63D3E" transform="translate(134,367)"/>
<path d="M0 0 C0 0.66 0 1.32 0 2 C0.66 2 1.32 2 2 2 C1.67 3.32 1.34 4.64 1 6 C-0.65 4.35 -2.3 2.7 -4 1 C-2 0 -2 0 0 0 Z " fill="#CF363F" transform="translate(117,354)"/>
<path d="M0 0 C0.33 0 0.66 0 1 0 C1.36923077 7.50769231 1.36923077 7.50769231 -0.5 10 C-0.995 10.33 -1.49 10.66 -2 11 C-1.125 3.375 -1.125 3.375 0 0 Z " fill="#B1393E" transform="translate(59,158)"/>
<path d="M0 0 C1.98 0.99 1.98 0.99 4 2 C4 3.32 4 4.64 4 6 C3.01 6.66 2.02 7.32 1 8 C0.67 5.36 0.34 2.72 0 0 Z " fill="#E49698" transform="translate(357,59)"/>
<path d="M0 0 C1.48199902 0.44909061 2.96055236 0.90956564 4.4375 1.375 C5.26121094 1.63023438 6.08492188 1.88546875 6.93359375 2.1484375 C9 3 9 3 10 5 C8.51793505 4.745504 7.03931385 4.47088238 5.5625 4.1875 C4.73878906 4.03667969 3.91507812 3.88585938 3.06640625 3.73046875 C2.38449219 3.48941406 1.70257813 3.24835937 1 3 C0.67 2.01 0.34 1.02 0 0 Z " fill="#E8797B" transform="translate(347,54)"/>
<path d="M0 0 C2.31 0.33 4.62 0.66 7 1 C7.33 2.32 7.66 3.64 8 5 C7.34 5 6.68 5 6 5 C6 4.34 6 3.68 6 3 C5.195625 2.87625 4.39125 2.7525 3.5625 2.625 C2.716875 2.41875 1.87125 2.2125 1 2 C0.67 1.34 0.34 0.68 0 0 Z " fill="#EB7171" transform="translate(329,44)"/>
<path d="M0 0 C0.66 0.33 1.32 0.66 2 1 C1.01 2.485 1.01 2.485 0 4 C-1.9453125 4.29296875 -1.9453125 4.29296875 -4.125 4.1875 C-5.40375 4.125625 -6.6825 4.06375 -8 4 C-5.31143836 2.20762558 -3.0466145 1.01553817 0 0 Z " fill="#DA6764" transform="translate(181,33)"/>
<path d="M0 0 C2.97 0.495 2.97 0.495 6 1 C6 1.66 6 2.32 6 3 C6.66 3.33 7.32 3.66 8 4 C6.02 4 4.04 4 2 4 C1.34 2.68 0.68 1.36 0 0 Z " fill="#E22F30" transform="translate(189,395)"/>
<path d="M0 0 C1.485 0.99 1.485 0.99 3 2 C3 3.32 3 4.64 3 6 C1.02 6.99 1.02 6.99 -1 8 C-1 6.68 -1 5.36 -1 4 C-0.34 4 0.32 4 1 4 C0.67 2.68 0.34 1.36 0 0 Z " fill="#C74F50" transform="translate(358,363)"/>
<path d="M0 0 C-1.36983503 3.16115776 -1.9890638 3.9927092 -5 6 C-5.66 5.34 -6.32 4.68 -7 4 C-3.375 0 -3.375 0 0 0 Z " fill="#610F13" transform="translate(170,140)"/>
<path d="M0 0 C1.98 0 3.96 0 6 0 C3.31158141 2.25245881 1.35358125 3.88213958 -2 5 C-2 4.01 -2 3.02 -2 2 C-1.34 2 -0.68 2 0 2 C0 1.34 0 0.68 0 0 Z " fill="#721B21" transform="translate(183,126)"/>
<path d="M0 0 C0 0.66 0 1.32 0 2 C-2.64 2 -5.28 2 -8 2 C-8 1.34 -8 0.68 -8 0 C-4.71303767 -0.79953138 -3.28976808 -1.09658936 0 0 Z " fill="#F15354" transform="translate(302,121)"/>
<path d="M0 0 C2.475 0.99 2.475 0.99 5 2 C4.01 2.33 3.02 2.66 2 3 C1.26676204 5.01508358 1.26676204 5.01508358 1 7 C0.34 5.02 -0.32 3.04 -1 1 C-0.67 0.67 -0.34 0.34 0 0 Z " fill="#F05353" transform="translate(305,113)"/>
<path d="M0 0 C0.33 0 0.66 0 1 0 C1 1.65 1 3.3 1 5 C0.01 4.67 -0.98 4.34 -2 4 C-2 4.66 -2 5.32 -2 6 C-2.99 5.67 -3.98 5.34 -5 5 C-4.67 4.01 -4.34 3.02 -4 2 C-3.34 2 -2.68 2 -2 2 C-1.34 1.34 -0.68 0.68 0 0 Z " fill="#F1615E" transform="translate(318,104)"/>
<path d="M0 0 C0.66 0.99 1.32 1.98 2 3 C-0.97 5.475 -0.97 5.475 -4 8 C-3.67 6.35 -3.34 4.7 -3 3 C-2.01 3 -1.02 3 0 3 C0 2.01 0 1.02 0 0 Z " fill="#E47B7A" transform="translate(330,93)"/>
<path d="M0 0 C1 3 1 3 0 6 C-1.32 6 -2.64 6 -4 6 C-2.84826645 3.53199953 -1.95216435 1.95216435 0 0 Z " fill="#D0343D" transform="translate(95,93)"/>
<path d="M0 0 C2 3 2 3 2 5 C0.35 4.67 -1.3 4.34 -3 4 C-3 3.01 -3 2.02 -3 1 C-2.01 0.67 -1.02 0.34 0 0 Z " fill="#E22B2D" transform="translate(127,360)"/>
<path d="M0 0 C0.66 0 1.32 0 2 0 C3.35439668 2.70879335 3.06501451 5.00933268 3 8 C2.67 7.01 2.34 6.02 2 5 C1.34 5 0.68 5 0 5 C-0.33 4.01 -0.66 3.02 -1 2 C-0.67 1.34 -0.34 0.68 0 0 Z " fill="#D92C2B" transform="translate(171,349)"/>
<path d="M0 0 C1.98 0 3.96 0 6 0 C6.33 0.99 6.66 1.98 7 3 C5.125 3.625 5.125 3.625 3 4 C1 2 1 2 0 0 Z " fill="#730F11" transform="translate(199,311)"/>
<path d="M0 0 C0.66 0.66 1.32 1.32 2 2 C1.625 4.625 1.625 4.625 1 7 C-0.5 5.625 -0.5 5.625 -2 4 C-2 3.34 -2 2.68 -2 2 C-1.34 2 -0.68 2 0 2 C0 1.34 0 0.68 0 0 Z " fill="#B73238" transform="translate(78,306)"/>
<path d="M0 0 C0.33 0.99 0.66 1.98 1 3 C0.34 3 -0.32 3 -1 3 C-1.33 3.99 -1.66 4.98 -2 6 C-3.32 5.34 -4.64 4.68 -6 4 C-6 3.34 -6 2.68 -6 2 C-4.02 2 -2.04 2 0 2 C0 1.34 0 0.68 0 0 Z " fill="#770404" transform="translate(182,125)"/>
<path d="M0 0 C0.99 0.33 1.98 0.66 3 1 C1.515 3.475 1.515 3.475 0 6 C-1.125 2.25 -1.125 2.25 0 0 Z M-2 6 C-1.34 6.66 -0.68 7.32 0 8 C-0.99 8.495 -0.99 8.495 -2 9 C-2 8.01 -2 7.02 -2 6 Z " fill="#E42428" transform="translate(91,99)"/>
</svg>
